<?xml version="1.0" encoding="UTF-8"?>
<svg version="1.1" xmlns="http://www.w3.org/2000/svg" width="478" height="477">
<path d="M0 0 C157.74 0 315.48 0 478 0 C478 157.41 478 314.82 478 477 C320.26 477 162.52 477 0 477 C0 319.59 0 162.18 0 0 Z " fill="#FEFEFE" transform="translate(0,0)"/>
<path d="M0 0 C4.63890486 3.47917865 8.03561429 7.3502018 11.58984375 11.91796875 C15.07474019 16.37434362 18.66949653 20.73981848 22.25610352 25.11450195 C22.78260498 25.75991943 23.30910645 26.40533691 23.8515625 27.0703125 C24.31385254 27.63508301 24.77614258 28.19985352 25.25244141 28.78173828 C26.11748291 29.87977783 26.11748291 29.87977783 27 31 C27.4988974 31.49735657 27.9977948 31.99471313 28.5118103 32.50714111 C34.31148501 38.8919051 33.77730407 45.55316563 33.5859375 53.78125 C33.57472829 55.20469361 33.56619626 56.62816058 33.56021118 58.05163574 C33.53744714 61.77418427 33.47863721 65.49529828 33.4119873 69.21728516 C33.35029225 73.02486776 33.32313861 76.83268521 33.29296875 80.640625 C33.22887672 88.09439964 33.1266547 95.54699781 33 103 C36.3 103 39.6 103 43 103 C43 104.65 43 106.3 43 108 C38.05 108.495 38.05 108.495 33 109 C34.15055967 113.60223869 34.91102244 113.93924968 38.5625 116.625 C42.82706057 120.20129288 42.82706057 120.20129288 43.59375 123.7421875 C43.56568107 126.21927025 43.40537106 128.55776449 43 131 C34.77495637 127.35086092 27.24264148 120.22634366 22 113 C22 111.68 22 110.36 22 109 C20.52093108 108.97310784 19.04172517 108.95365379 17.5625 108.9375 C16.73878906 108.92589844 15.91507813 108.91429687 15.06640625 108.90234375 C13.00836062 108.76732652 13.00836062 108.76732652 12 110 C11.47349543 115.62060724 12.29939743 118.25669383 15.8125 122.625 C16.21412354 123.13297119 16.61574707 123.64094238 17.02954102 124.16430664 C20.52314325 128.54084109 24.17108517 132.79822209 27.8190918 137.04638672 C32.10789553 142.05715794 36.11885821 147.26029212 40.1015625 152.515625 C41.77462794 154.81879824 41.77462794 154.81879824 43 156 C43.08669432 157.4887186 43.10703494 158.981445 43.09765625 160.47265625 C43.09515869 161.28226807 43.09266113 162.09187988 43.09008789 162.92602539 C43.08098389 163.96106201 43.07187988 164.99609863 43.0625 166.0625 C43.041875 169.341875 43.02125 172.62125 43 176 C36.4 176 29.8 176 23 176 C23 172.7 23 169.4 23 166 C20.42356805 155.16671707 14.01809459 145.66603267 8.11474609 136.3840332 C-2.70701391 119.27612567 -2.70701391 119.27612567 -2 112 C-0.5 110.1875 -0.5 110.1875 1 109 C-0.216875 108.9175 -1.43375 108.835 -2.6875 108.75 C-3.37199219 108.70359375 -4.05648437 108.6571875 -4.76171875 108.609375 C-8.0980587 109.19163328 -9.66944706 110.58535494 -12 113 C-14.76483569 123.73497654 -9.84800549 135.40182666 -6.73095703 145.56298828 C-3.6551501 155.81773269 -2.67176564 165.27767752 -3 176 C-10.59 176 -18.18 176 -26 176 C-25.67 174.02 -25.34 172.04 -25 170 C-24.40051623 162.05684001 -25.27162723 154.57786569 -26.5 146.75 C-30.33125992 121.96500424 -30.33125992 121.96500424 -25 113 C-22.95943261 110.5343144 -22.13026076 110.04342025 -19 109 C-27.59835172 108.30464482 -27.59835172 108.30464482 -35 112 C-44.38507092 120.83300792 -44.23925725 139.99716989 -45 152 C-45.13998876 154.20871153 -45.2857698 156.41706399 -45.4375 158.625 C-45.49808594 159.58664062 -45.55867187 160.54828125 -45.62109375 161.5390625 C-46.15274189 166.39514758 -47.12612656 171.19369609 -48 176 C-55.59 176 -63.18 176 -71 176 C-63.05104167 137.13842593 -63.05104167 137.13842593 -57 125 C-56.56042969 124.09765625 -56.12085938 123.1953125 -55.66796875 122.265625 C-52.25825477 115.91585462 -48.29949368 112.44372321 -42 109 C-47.90082298 108.38533094 -52.08488701 108.79112715 -56.97265625 112.28515625 C-66.12929554 120.03036752 -71.61796684 129.48648491 -77 140 C-77.35481445 140.68513672 -77.70962891 141.37027344 -78.07519531 142.07617188 C-83.70378268 153.06309125 -87.49301644 164.1639305 -91 176 C-97.93 176 -104.86 176 -112 176 C-106.78669457 160.3600837 -99.7375802 146.30139654 -90 133 C-89.32066406 132.06542969 -88.64132813 131.13085938 -87.94140625 130.16796875 C-81.08890266 121.19215419 -73.22124598 113.91311099 -63 109 C-74.81601484 108.19129936 -83.80481343 111.6110108 -93 119 C-110.38900498 134.45423931 -122.71208038 154.36679915 -131 176 C-137.93 176 -144.86 176 -152 176 C-146.7745772 162.93644301 -139.10233133 151.64044215 -130 141 C-129.54334961 140.46358887 -129.08669922 139.92717773 -128.61621094 139.37451172 C-116.81243288 125.65377326 -102.72698943 113.89020398 -85 109 C-103.63909496 107.79097762 -119.23047374 115.95439224 -133 128 C-133.90621094 128.7734375 -134.81242187 129.546875 -135.74609375 130.34375 C-150.13210396 142.9539559 -161.28387413 159.0388902 -170 176 C-176.93 176 -183.86 176 -191 176 C-180.33882081 149.34705203 -150.84982213 125.49842954 -125.03662109 114.13574219 C-121.40159994 112.6302644 -117.7236075 111.26883201 -114 110 C-137.81996214 108.37591167 -162.42133947 125.74730468 -179.72021484 140.46337891 C-183.24146198 143.54512729 -186.63504707 146.74786619 -190 150 C-190.82242188 150.78246094 -191.64484375 151.56492187 -192.4921875 152.37109375 C-196.99661333 156.74660504 -200.95625145 161.29492384 -204.6875 166.34765625 C-205.120625 166.89292969 -205.55375 167.43820312 -206 168 C-206.33 168 -206.66 168 -207 168 C-208.50481064 154.37310367 -208.50481064 154.37310367 -205.30078125 149.3203125 C-202.66927144 146.94542927 -199.93667242 144.98571522 -197 143 C-195.88194172 142.1419785 -194.77017658 141.27570901 -193.6640625 140.40234375 C-184.04806959 132.91424105 -173.66122409 126.86508313 -163 121 C-162.04222656 120.46375 -161.08445313 119.9275 -160.09765625 119.375 C-152.01016009 115.06884564 -142.90950447 112.05948345 -134 110 C-159.98531942 108.32352778 -185.85102663 122.40066015 -207 136 C-207 133.36 -207 130.72 -207 128 C-192.52197817 119.90873674 -178.14669331 113.89352888 -162 110 C-178.46940787 109.73436439 -192.44568083 113.00312133 -207 121 C-207 118.36 -207 115.72 -207 113 C-203.16270693 110.9474944 -200.34862851 109.8697257 -196 109 C-199.63 108.67 -203.26 108.34 -207 108 C-207 106.35 -207 104.7 -207 103 C-201.72 103 -196.44 103 -191 103 C-191.08698113 99.74870541 -191.19386458 96.5001628 -191.3125 93.25 C-191.33505859 92.32960938 -191.35761719 91.40921875 -191.38085938 90.4609375 C-191.41630859 89.57148438 -191.45175781 88.68203125 -191.48828125 87.765625 C-191.51446533 86.94868164 -191.54064941 86.13173828 -191.56762695 85.29003906 C-192.09109013 82.51754635 -193.20568815 81.14231339 -195 79 C-197.38928368 74.48601774 -197.36675662 70.17886941 -197.375 65.1875 C-197.39949219 64.41857422 -197.42398438 63.64964844 -197.44921875 62.85742188 C-197.48185505 56.41175243 -195.8712746 51.03031354 -191.36474609 46.27416992 C-190.91437988 45.85369385 -190.46401367 45.43321777 -190 45 C-185.78220697 46.50635465 -184.2252326 49.24012422 -182 53 C-180.63856358 57.08430925 -180.69681554 60.90794679 -180.625 65.1875 C-180.58761719 66.01314453 -180.55023438 66.83878906 -180.51171875 67.68945312 C-180.42127055 74.06605149 -182.07786624 77.99777594 -186 83 C-186.33 83.33 -186.66 83.66 -187 84 C-187.15620555 85.41327947 -187.25056173 86.8335459 -187.31640625 88.25390625 C-187.37356812 89.40741577 -187.37356812 89.40741577 -187.43188477 90.58422852 C-187.47498779 91.56705811 -187.51809082 92.5498877 -187.5625 93.5625 C-187.706875 96.676875 -187.85125 99.79125 -188 103 C-179.75 103 -171.5 103 -163 103 C-163 96.4 -163 89.8 -163 83 C-163.66 83 -164.32 83 -165 83 C-165.27714844 82.37351562 -165.55429688 81.74703125 -165.83984375 81.1015625 C-166.20207031 80.28429687 -166.56429687 79.46703125 -166.9375 78.625 C-167.29714844 77.81289062 -167.65679687 77.00078125 -168.02734375 76.1640625 C-168.6569903 74.76316215 -169.31312642 73.37374716 -170 72 C-170.81538331 62.92384802 -170.22346346 53.68680432 -164.61328125 46.1328125 C-163 45 -163 45 -160.98046875 45.0703125 C-158.4548593 46.25590431 -157.70458409 47.47727788 -156.3125 49.875 C-155.89613281 50.57367188 -155.47976562 51.27234375 -155.05078125 51.9921875 C-151.82412767 58.15761479 -152.13691697 66.19030825 -153 73 C-154.2476327 76.66001341 -155.84394851 79.7967235 -158 83 C-158.66 83 -159.32 83 -160 83 C-160 89.6 -160 96.2 -160 103 C-151.75 103 -143.5 103 -135 103 C-135 96.4 -135 89.8 -135 83 C-135.66 83 -136.32 83 -137 83 C-142.7693243 73.87210476 -143.11416973 65.55457666 -141.3125 55.0625 C-140.21663891 50.72704954 -138.09264926 48.17403477 -135 45 C-133.203125 45.16796875 -133.203125 45.16796875 -131 46 C-124.82923726 54.33619095 -124.03564214 62.36228573 -125.29296875 72.3203125 C-125.99810914 75.9926278 -126.91753176 77.91498644 -129.53125 80.609375 C-132.98442858 84.60963511 -132.77624999 88.79388382 -132.8125 93.875 C-132.874375 96.88625 -132.93625 99.8975 -133 103 C-124.75 103 -116.5 103 -108 103 C-108.061875 99.865 -108.12375 96.73 -108.1875 93.5 C-108.19418701 92.52869141 -108.20087402 91.55738281 -108.20776367 90.55664062 C-108.41194138 84.80456257 -109.59235317 81.66895337 -112.87573242 77.00585938 C-114.92917003 73.34222346 -114.68432581 69.6025663 -114.5625 65.5 C-114.57345703 64.69691406 -114.58441406 63.89382812 -114.59570312 63.06640625 C-114.516888 56.58254855 -112.90216818 51.06212338 -108.36547852 46.27539062 C-107.91487061 45.85451172 -107.4642627 45.43363281 -107 45 C-102.78220697 46.50635465 -101.2252326 49.24012422 -99 53 C-97.70143038 56.89570887 -97.73675864 60.62530392 -97.6875 64.6875 C-97.64399414 65.85442383 -97.64399414 65.85442383 -97.59960938 67.04492188 C-97.53650635 72.8649624 -98.80192389 77.11554497 -102 82 C-102.66 82.66 -103.32 83.32 -104 84 C-104.36894582 86.03060659 -104.36894582 86.03060659 -104.4140625 88.3515625 C-104.44967285 89.11807129 -104.4852832 89.88458008 -104.52197266 90.67431641 C-104.57297119 92.13490479 -104.57297119 92.13490479 -104.625 93.625 C-104.810625 98.265625 -104.810625 98.265625 -105 103 C-95.43 103 -85.86 103 -76 103 C-76.03480469 98.38902344 -76.06960937 93.77804688 -76.10546875 89.02734375 C-76.12080691 86.09699245 -76.1352494 83.16669102 -76.14648438 80.23632812 C-76.16438127 75.59047092 -76.18549761 70.94479199 -76.22631836 66.29907227 C-76.25904056 62.55135208 -76.27687994 58.80382322 -76.28463173 55.05597115 C-76.29015227 53.62989861 -76.30093244 52.20383593 -76.31719017 50.77784538 C-76.49026062 34.96095734 -76.49026062 34.96095734 -71.46484375 29.2578125 C-66.04325642 25.23668635 -62.7174236 24.19436305 -56 25 C-52.75 26.625 -52.75 26.625 -50 29 C-49.12835205 29.72010254 -48.2567041 30.44020508 -47.35864258 31.18212891 C-43.10312821 36.42495119 -44.39613022 44.06652412 -44.51171875 50.4609375 C-44.52105305 51.97692699 -44.52816625 53.49293164 -44.53315735 55.00894165 C-44.55217917 58.98445838 -44.60123647 62.95905071 -44.65667725 66.9342041 C-44.70797496 70.99637347 -44.7306937 75.05869332 -44.75585938 79.12109375 C-44.80936192 87.08119909 -44.89725645 95.04037778 -45 103 C-40.71 103 -36.42 103 -32 103 C-32.07331543 101.15027588 -32.14663086 99.30055176 -32.22216797 97.39477539 C-32.44993301 91.21291137 -32.60965598 85.0320527 -32.72537041 78.84711552 C-32.79779065 75.1043882 -32.89556715 71.36628507 -33.05615234 67.6262207 C-34.25682002 38.90160065 -34.25682002 38.90160065 -25.421875 29.01171875 C-23.56744919 27.11205055 -21.67675038 25.30359883 -19.6930542 23.5397644 C-17.43683392 21.4878232 -15.58658578 19.19585291 -13.7109375 16.796875 C-12.02242779 14.74845619 -10.33383872 12.70010473 -8.64453125 10.65234375 C-5.73577804 7.12269659 -2.8454595 3.58111488 0 0 Z " fill="#609B47" transform="translate(322,112)"/>
<path d="M0 0 C2.75 -0.28515625 2.75 -0.28515625 6 0 C8.0625 1.87890625 8.0625 1.87890625 10 4.5625 C41.46096784 45.56188522 90.45170693 73.92401497 140.99072266 83.61035156 C142.33751778 83.87152836 143.68111211 84.14974922 145.02099609 84.44433594 C169.21324495 89.714608 197.62461481 88.9011621 222 85 C222.76022461 84.8870459 223.52044922 84.7740918 224.30371094 84.65771484 C276.19825917 76.69116582 326.02685908 47.82867416 360 8 C361.12105833 6.42858131 362.2281415 4.84696434 363.3125 3.25 C364.65234375 1.359375 364.65234375 1.359375 366 0 C369.375 -0.5 369.375 -0.5 372 0 C369.09053731 4.55034449 365.90514936 8.66620213 362.375 12.75 C361.84938477 13.35980713 361.32376953 13.96961426 360.78222656 14.59790039 C335.96438099 43.11146316 304.63372405 63.05998896 269.74072266 76.90551758 C267.97369336 77.6111645 266.21235737 78.33132441 264.45849609 79.0690918 C258.29643657 81.63895487 252.10619573 83.47527924 245.625 85.0625 C244.58496826 85.31926514 243.54493652 85.57603027 242.47338867 85.84057617 C223.25696722 90.45175587 204.06077485 92.2217121 184.3125 92.1875 C183.25627441 92.18609512 183.25627441 92.18609512 182.17871094 92.18466187 C119.72015692 92.00513244 62.05684946 65.6649064 18 22 C11.25624983 15.19502997 4.88972793 8.29966977 0 0 Z " fill="#68A050" transform="translate(54,382)"/>
<path d="M0 0 C3.00745969 0.01610355 6.01357623 0.00003158 9.02099609 -0.01904297 C26.26440237 -0.03699321 42.80617573 2.06067953 59.50927734 6.39111328 C60.35619141 6.60380859 61.20310547 6.81650391 62.07568359 7.03564453 C64.90245951 7.77362725 67.70490958 8.57174422 70.50927734 9.39111328 C71.19795898 9.59075684 71.88664063 9.79040039 72.59619141 9.99609375 C82.9466317 13.02726267 92.80195623 16.44325416 102.43212891 21.33691406 C103.91397151 22.08898228 105.40089536 22.83107322 106.89111328 23.56640625 C124.43867752 32.23257587 140.75008551 42.4858493 155.50927734 55.39111328 C156.30978516 56.08205078 157.11029297 56.77298828 157.93505859 57.48486328 C169.47401578 67.64356243 180.94378743 78.54287841 189.50927734 91.39111328 C186.88427734 91.80517578 186.88427734 91.80517578 183.50927734 91.39111328 C181.12777313 89.50184911 179.37219177 87.15430086 177.50927734 84.76611328 C176.37051297 83.38221889 175.22714333 82.00210332 174.07958984 80.62548828 C173.49338867 79.91972656 172.9071875 79.21396484 172.30322266 78.48681641 C138.13756595 38.5741875 82.44816157 10.11614504 30.12255859 5.77783203 C21.56807315 5.24980616 13.01126275 5.2050461 4.44262695 5.20581055 C1.71142959 5.20362501 -1.01936189 5.18539679 -3.75048828 5.16650391 C-19.96025551 5.11157571 -35.06771364 6.63409507 -50.80322266 10.76611328 C-51.96144531 11.05744141 -53.11966797 11.34876953 -54.31298828 11.64892578 C-83.23853775 19.05490588 -110.67197399 32.38754616 -134.49072266 50.39111328 C-135.36083984 51.04724609 -136.23095703 51.70337891 -137.12744141 52.37939453 C-150.79716744 63.01140367 -164.11793816 75.32403235 -174.28759766 89.33642578 C-176.49072266 91.39111328 -176.49072266 91.39111328 -179.75634766 91.69580078 C-180.65869141 91.59525391 -181.56103516 91.49470703 -182.49072266 91.39111328 C-178.58670529 85.98446417 -174.45519921 80.97663965 -169.86572266 76.14111328 C-169.25599609 75.49561523 -168.64626953 74.85011719 -168.01806641 74.18505859 C-166.18139043 72.24814822 -164.33681159 70.31904853 -162.49072266 68.39111328 C-161.7042334 67.56160156 -161.7042334 67.56160156 -160.90185547 66.71533203 C-133.93035247 38.35390814 -96.40977146 17.6988036 -58.68554688 7.96142578 C-56.61681156 7.42387676 -54.55561169 6.86378723 -52.49462891 6.29736328 C-35.12519024 1.61444699 -17.96076489 -0.11391606 0 0 Z " fill="#68A050" transform="translate(236.49072265625,4.60888671875)"/>
<path d="M0 0 C1.6875 1.1875 1.6875 1.1875 3.6875 4.1875 C4.244375 3.89875 4.80125 3.61 5.375 3.3125 C6.138125 2.94125 6.90125 2.57 7.6875 2.1875 C8.739375 1.630625 8.739375 1.630625 9.8125 1.0625 C14.12788816 -0.250879 18.21861701 -0.39507715 22.6875 0.1875 C27.14328223 2.60912078 30.16648656 6.34791177 31.6875 11.1875 C32.04291321 14.60922327 32.28206125 17.97630102 32.36035156 21.41308594 C32.46627862 25.42098071 32.79332432 28.61924651 34.6875 32.1875 C36.70485205 33.53160262 36.70485205 33.53160262 38.6875 34.1875 C38.11405063 37.05474686 37.8260485 38.0489515 35.6875 40.1875 C32.41548164 40.54315417 30.37150716 40.54850378 27.4375 39 C23.50315293 34.92514053 23.40846648 30.25932373 23.1875 24.8125 C22.97310403 19.54907905 22.2824654 15.16533557 20.6875 10.1875 C17.38182511 9.33362895 17.38182511 9.33362895 13.6875 9.1875 C10.74177395 11.35803499 9.84689059 12.70932823 8.6875 16.1875 C8.53914052 17.95916975 8.43979982 19.73517612 8.37109375 21.51171875 C8.30825195 23.05375977 8.30825195 23.05375977 8.24414062 24.62695312 C8.20482422 25.69880859 8.16550781 26.77066406 8.125 27.875 C8.06022461 29.50018555 8.06022461 29.50018555 7.99414062 31.15820312 C7.88803162 33.83450791 7.78597639 36.51090526 7.6875 39.1875 C4.875 39.875 4.875 39.875 1.6875 40.1875 C0.01367188 39.03100586 0.01367188 39.03100586 -1.3125 37.1875 C-1.69726562 34.79907227 -1.69726562 34.79907227 -1.71875 32.00390625 C-1.74066406 30.99392578 -1.76257813 29.98394531 -1.78515625 28.94335938 C-1.79417969 27.88955078 -1.80320313 26.83574219 -1.8125 25.75 C-1.83039481 23.66781114 -1.8611382 21.58568328 -1.90625 19.50390625 C-1.91333984 18.58037354 -1.92042969 17.65684082 -1.92773438 16.70532227 C-2.38632626 13.70439705 -3.17515722 12.32699984 -5.3125 10.1875 C-9.89332263 9.55236841 -9.89332263 9.55236841 -13.9609375 11.375 C-15.74437971 13.76666816 -16.00715175 15.67907059 -16.4375 18.625 C-16.67533203 20.21441406 -16.67533203 20.21441406 -16.91796875 21.8359375 C-17.42153614 26.11376739 -17.69394083 30.38830479 -17.87109375 34.69140625 C-18.37154552 37.52139458 -19.09503448 38.43126731 -21.3125 40.1875 C-23.6225 39.5275 -25.9325 38.8675 -28.3125 38.1875 C-28.30726318 37.34977051 -28.30202637 36.51204102 -28.29663086 35.64892578 C-28.27959986 32.54411064 -28.26705518 29.43931929 -28.25756836 26.33447266 C-28.25005964 24.32843449 -28.2373553 22.32241798 -28.22460938 20.31640625 C-28.22138672 19.05957031 -28.21816406 17.80273438 -28.21484375 16.5078125 C-28.20960693 15.34523926 -28.20437012 14.18266602 -28.19897461 12.98486328 C-28.11893717 10.23247808 -28.11893717 10.23247808 -29.3125 8.1875 C-30.09625 8.22875 -30.88 8.27 -31.6875 8.3125 C-34.3125 8.1875 -34.3125 8.1875 -36.3125 6.1875 C-35.94568342 3.25296739 -35.44812754 2.32312754 -33.3125 0.1875 C-26.33126676 -0.37550268 -26.33126676 -0.37550268 -22.9375 1.5 C-21.3125 3.1875 -21.3125 3.1875 -19.3125 6.1875 C-18.405 5.40375 -17.4975 4.62 -16.5625 3.8125 C-11.36497614 -0.4642504 -6.82840585 -2.39916962 0 0 Z " fill="#609B47" transform="translate(170.3125,326.8125)"/>
<path d="M0 0 C4.00103436 3.2661505 5.97550374 7.27179203 6.60839844 12.3984375 C6.68864402 15.06932764 6.64777557 17.7050157 6.546875 20.375 C6.52882812 21.2928125 6.51078125 22.210625 6.4921875 23.15625 C6.44550602 25.39696092 6.38006022 27.63539799 6.296875 29.875 C7.4725 29.813125 7.4725 29.813125 8.671875 29.75 C11.296875 29.875 11.296875 29.875 13.296875 31.875 C13.171875 33.875 13.171875 33.875 12.296875 35.875 C9.13072039 38.22029971 6.13792001 38.27510886 2.296875 37.875 C1.69875 37.318125 1.100625 36.76125 0.484375 36.1875 C-0.2375 35.754375 -0.959375 35.32125 -1.703125 34.875 C-3.61137104 35.32704993 -3.61137104 35.32704993 -5.703125 36.1875 C-11.34569754 38.32328366 -16.7298758 38.78415742 -22.703125 37.875 C-26.22846196 36.22440871 -28.12766741 33.82575602 -30.140625 30.5 C-30.92077728 26.85928934 -30.72917378 24.46617073 -29.703125 20.875 C-25.30040744 16.15013237 -20.04844208 13.3890486 -13.58984375 12.625 C-9.53364169 12.50277922 -6.32681949 13.06315275 -2.703125 14.875 C-3.363125 12.235 -4.023125 9.595 -4.703125 6.875 C-6.7653298 6.820652 -8.82795316 6.78205039 -10.890625 6.75 C-12.03917969 6.72679687 -13.18773438 6.70359375 -14.37109375 6.6796875 C-17.64103643 6.87136058 -19.73752578 7.5801609 -22.703125 8.875 C-25.015625 8.5 -25.015625 8.5 -26.703125 7.875 C-27.015625 5.625 -27.015625 5.625 -26.703125 2.875 C-18.84231827 -5.21700693 -9.40668479 -4.31389366 0 0 Z " fill="#639C4A" transform="translate(80.703125,329.125)"/>
<path d="M0 0 C4.95 0 9.9 0 15 0 C15 0.99 15 1.98 15 3 C14.34515625 3.20753906 13.6903125 3.41507813 13.015625 3.62890625 C1.91423229 7.37641028 -7.19081873 12.75972301 -15.69921875 20.8203125 C-17.75792477 22.77066557 -19.87576447 24.57212929 -22.0625 26.375 C-34.66203532 37.43739201 -44.39192882 53.19510473 -52 68 C-58.93 68 -65.86 68 -73 68 C-62.33882081 41.34705203 -32.84982213 17.49842954 -7.03662109 6.13574219 C-3.40159994 4.6302644 0.2763925 3.26883201 4 2 C2.68 1.34 1.36 0.68 0 0 Z " fill="#609B46" transform="translate(204,220)"/>
<path d="M0 0 C2.31 0 4.62 0 7 0 C7.33 9.57 7.66 19.14 8 29 C9.65 27.35 11.3 25.7 13 24 C17.0796152 22.64012827 20.74512116 22.21716028 25 23 C28.60816709 25.36062277 30.64229894 27.92689682 32 32 C32.1342679 33.4212326 32.2235187 34.84704448 32.28125 36.2734375 C32.31863281 37.0984375 32.35601562 37.9234375 32.39453125 38.7734375 C32.44673828 40.06121094 32.44673828 40.06121094 32.5 41.375 C32.75423873 48.74598215 32.75423873 48.74598215 34 56 C35.98 56 37.96 56 40 56 C40.6875 57.8125 40.6875 57.8125 41 60 C40 61.75 40 61.75 38 63 C33.52886038 63.674889 31.55177548 63.34355832 27.6875 60.9375 C22.64219814 55.42286774 22.67420784 48.74932854 22.4375 41.625 C22.7183556 36.40010064 22.7183556 36.40010064 21 32 C17.62176584 31.77732292 17.62176584 31.77732292 14 33 C8.99579761 38.25058927 8.30979726 43.85210743 8.375 50.8125 C8.375 52.48572775 8.36251441 54.15901458 8.3359375 55.83203125 C8.34439697 56.92608276 8.34439697 56.92608276 8.35302734 58.04223633 C7.89659441 60.57345052 7.01748214 61.450379 5 63 C2.4375 63.3125 2.4375 63.3125 0 63 C-2.65608754 60.34391246 -2.25310262 59.09695141 -2.25878906 55.38867188 C-2.26509338 54.21405396 -2.27139771 53.03943604 -2.27789307 51.82922363 C-2.2738446 50.55526733 -2.26979614 49.28131104 -2.265625 47.96875 C-2.26753845 46.66675659 -2.2694519 45.36476318 -2.27142334 44.02331543 C-2.27437391 41.26598372 -2.27007924 38.50878151 -2.26074219 35.75146484 C-2.24934753 32.21372927 -2.25590738 28.67629713 -2.26788712 25.13857269 C-2.27684394 21.76944066 -2.2705764 18.40039066 -2.265625 15.03125 C-2.26967346 13.7572937 -2.27372192 12.4833374 -2.27789307 11.17077637 C-2.27158875 9.99615845 -2.26528442 8.82154053 -2.25878906 7.61132812 C-2.25719788 6.5736731 -2.25560669 5.53601807 -2.25396729 4.46691895 C-2 2 -2 2 0 0 Z " fill="#609B47" transform="translate(412,304)"/>
<path d="M0 0 C4.31064449 4.53752051 5.35972322 7.64089471 5.28125 13.7421875 C4.85665394 17.1507503 3.52704082 18.74615278 1 21 C-2.94623477 22.97311739 -6.17805687 23.24338514 -10.5625 23.1875 C-11.67753906 23.18105469 -12.79257812 23.17460937 -13.94140625 23.16796875 C-16.47559459 23.02879876 -18.58691993 22.73749391 -21 22 C-19.31192092 26.23084903 -19.31192092 26.23084903 -16 29 C-14.55151418 29.08342159 -13.09929131 29.10732861 -11.6484375 29.09765625 C-10.37226563 29.09282227 -10.37226563 29.09282227 -9.0703125 29.08789062 C-7.73613281 29.07532227 -7.73613281 29.07532227 -6.375 29.0625 C-5.4778125 29.05798828 -4.580625 29.05347656 -3.65625 29.04882812 C-1.43743352 29.03702591 0.78125018 29.02056155 3 29 C3.495 31.475 3.495 31.475 4 34 C-1.71730191 38.9232322 -5.85448442 39.30342495 -13.24609375 39.21484375 C-18.40831879 38.81211697 -21.67182699 37.05650126 -25.75 33.8125 C-29.90663877 28.61670153 -31.68320175 23.03710887 -31.40625 16.3671875 C-30.46975966 10.91033034 -28.25278218 5.91530314 -23.9921875 2.29296875 C-16.31005476 -2.62529704 -8.53620065 -3.4473118 0 0 Z " fill="#639C4A" transform="translate(352,328)"/>
<path d="M0 0 C1.01900391 -0.00773437 2.03800781 -0.01546875 3.08789062 -0.0234375 C4.07337891 -0.02085937 5.05886719 -0.01828125 6.07421875 -0.015625 C6.96069092 -0.01336914 7.84716309 -0.01111328 8.76049805 -0.00878906 C12.73280087 0.39402745 15.48321766 1.42071766 18.3125 4.25 C17.75694444 8.80555556 17.75694444 8.80555556 16.3125 10.25 C14.16691173 10.33775605 12.01845579 10.35695219 9.87109375 10.34765625 C8.56591797 10.34443359 7.26074219 10.34121094 5.91601562 10.33789062 C4.5273431 10.32953401 3.13867123 10.32106905 1.75 10.3125 C0.35742344 10.30748666 -1.03515481 10.30292347 -2.42773438 10.29882812 C-5.84767451 10.28699442 -9.2675925 10.26905831 -12.6875 10.25 C-12.6875 15.53 -12.6875 20.81 -12.6875 26.25 C-11.13417969 26.15460938 -9.58085937 26.05921875 -7.98046875 25.9609375 C-5.94534352 25.84839601 -3.91018543 25.73644762 -1.875 25.625 C-0.33875977 25.52832031 -0.33875977 25.52832031 1.22851562 25.4296875 C2.21142578 25.378125 3.19433594 25.3265625 4.20703125 25.2734375 C5.11300049 25.22106934 6.01896973 25.16870117 6.95239258 25.11474609 C9.3125 25.25 9.3125 25.25 12.3125 27.25 C12 29.625 12 29.625 11.3125 32.25 C8.10843538 34.38604308 7.31649253 34.49208908 3.64453125 34.4453125 C2.75185547 34.43886719 1.85917969 34.43242187 0.93945312 34.42578125 C0.01068359 34.40902344 -0.91808594 34.39226562 -1.875 34.375 C-2.81537109 34.36597656 -3.75574219 34.35695313 -4.72460938 34.34765625 C-7.04582968 34.32409056 -9.36653644 34.29119116 -11.6875 34.25 C-11.67702637 34.93626465 -11.66655273 35.6225293 -11.65576172 36.32958984 C-11.61428126 39.42802289 -11.58819931 42.52639761 -11.5625 45.625 C-11.54574219 46.70523438 -11.52898438 47.78546875 -11.51171875 48.8984375 C-11.50527344 49.9296875 -11.49882812 50.9609375 -11.4921875 52.0234375 C-11.48171387 52.97653809 -11.47124023 53.92963867 -11.46044922 54.91162109 C-11.6875 57.25 -11.6875 57.25 -13.6875 59.25 C-17.25 59.4375 -17.25 59.4375 -20.6875 59.25 C-22.3662478 57.5712522 -21.91584598 55.46733522 -22.00390625 53.16015625 C-22.06723145 51.5359375 -22.06723145 51.5359375 -22.13183594 49.87890625 C-22.19032715 48.11353516 -22.19032715 48.11353516 -22.25 46.3125 C-22.2902832 45.11367188 -22.33056641 43.91484375 -22.37207031 42.6796875 C-22.64071694 34.03784478 -22.8488114 25.39560915 -22.9375 16.75 C-22.9588501 15.64148682 -22.9802002 14.53297363 -23.00219727 13.39086914 C-23.00662842 12.36469482 -23.01105957 11.33852051 -23.015625 10.28125 C-23.0249707 9.37955078 -23.03431641 8.47785156 -23.04394531 7.54882812 C-22.60980925 4.74894789 -21.94011839 3.92235427 -19.6875 2.25 C-13.13309046 0.02816626 -6.87451869 -0.05277941 0 0 Z " fill="#649D4B" transform="translate(27.6875,306.75)"/>
<path d="M0 0 C1.08410156 -0.00386719 2.16820312 -0.00773437 3.28515625 -0.01171875 C4.32800781 -0.01042969 5.37085938 -0.00914062 6.4453125 -0.0078125 C7.39164551 -0.00668457 8.33797852 -0.00555664 9.31298828 -0.00439453 C11.65123736 0.11369886 13.63758219 0.46252434 15.875 1.125 C15.875 1.785 15.875 2.445 15.875 3.125 C16.535 3.125 17.195 3.125 17.875 3.125 C17.875 5.105 17.875 7.085 17.875 9.125 C14.51764863 10.24411712 11.99294614 10.23865586 8.45703125 10.22265625 C7.20341797 10.21943359 5.94980469 10.21621094 4.65820312 10.21289062 C3.34787109 10.20451172 2.03753906 10.19613281 0.6875 10.1875 C-0.64778481 10.18248317 -1.98307141 10.17792059 -3.31835938 10.17382812 C-6.5872588 10.16202704 -9.85613502 10.14409136 -13.125 10.125 C-13.125 15.405 -13.125 20.685 -13.125 26.125 C-11.57167969 26.02960938 -10.01835937 25.93421875 -8.41796875 25.8359375 C-6.38284352 25.72339601 -4.34768543 25.61144762 -2.3125 25.5 C-0.77625977 25.40332031 -0.77625977 25.40332031 0.79101562 25.3046875 C1.77392578 25.253125 2.75683594 25.2015625 3.76953125 25.1484375 C4.67550049 25.09606934 5.58146973 25.04370117 6.51489258 24.98974609 C8.875 25.125 8.875 25.125 11.875 27.125 C11.5625 29.5 11.5625 29.5 10.875 32.125 C7.67093538 34.26104308 6.87899253 34.36708908 3.20703125 34.3203125 C2.40241455 34.31531738 1.59779785 34.31032227 0.76879883 34.30517578 C-0.75644409 34.27786377 -0.75644409 34.27786377 -2.3125 34.25 C-5.550625 34.20875 -8.78875 34.1675 -12.125 34.125 C-12.125 42.045 -12.125 49.965 -12.125 58.125 C-14.85747348 59.49123674 -17.10698902 59.253426 -20.125 59.125 C-21.87039213 57.37960787 -21.35842586 54.94066313 -21.44140625 52.5625 C-21.48370361 51.38413574 -21.52600098 50.20577148 -21.56958008 48.99169922 C-21.60849365 47.71568848 -21.64740723 46.43967773 -21.6875 45.125 C-21.72705811 43.82965332 -21.76661621 42.53430664 -21.80737305 41.19970703 C-21.90572365 37.83569915 -21.99236106 34.47148386 -22.07495117 31.10705566 C-22.123406 29.18812628 -22.17781281 27.26935005 -22.23242188 25.35058594 C-22.32392966 21.90036892 -22.38607243 18.45102021 -22.4375 15 C-22.48209351 13.42025391 -22.48209351 13.42025391 -22.52758789 11.80859375 C-22.5352417 10.83792969 -22.54289551 9.86726563 -22.55078125 8.8671875 C-22.56536377 8.0201123 -22.57994629 7.17303711 -22.5949707 6.30029297 C-22.125 4.125 -22.125 4.125 -20.25415039 2.37109375 C-14.3611524 -1.07780681 -6.61154047 -0.02375404 0 0 Z " fill="#609B47" transform="translate(261.125,306.875)"/>
<path d="M0 0 C9.57 0 19.14 0 29 0 C29 9.9 29 19.8 29 30 C19.43 30 9.86 30 0 30 C0 20.1 0 10.2 0 0 Z " fill="#FEFEFE" transform="translate(308,185)"/>
<path d="M0 0 C2.9475299 2.04104749 3.41737536 2.60130587 4.5 6.1875 C4.5 7.074375 4.5 7.96125 4.5 8.875 C1.5 10.875 1.5 10.875 -0.375 10.6875 C-2.5 9.875 -2.5 9.875 -4.8125 8.3125 C-8.24226719 6.47797336 -10.65975869 6.59053768 -14.5 6.875 C-15.49 7.205 -16.48 7.535 -17.5 7.875 C-17.5 9.195 -17.5 10.515 -17.5 11.875 C-16.73816406 12.03355469 -15.97632813 12.19210937 -15.19140625 12.35546875 C-7.5338801 14.0858211 -0.18459529 16.19040471 5.5 21.875 C6.07072733 24.93289694 6.00984793 27.81060152 5.5 30.875 C2.46390584 35.10713125 -1.44625746 37.64468815 -6.5 38.875 C-13.66947513 39.74210466 -18.68119875 39.23910094 -24.5 34.875 C-26.81379826 32.56120174 -27.42567872 31.49929879 -27.8125 28.25 C-27.5 25.875 -27.5 25.875 -25.5 23.875 C-21.66955449 24.13036303 -20.06487562 26.22738646 -17.5 28.875 C-13.24199462 30.29433513 -9.27088462 30.60151677 -5.0625 28.875 C-4.546875 28.545 -4.03125 28.215 -3.5 27.875 C-3.83 26.885 -4.16 25.895 -4.5 24.875 C-7.4866379 23.87173241 -7.4866379 23.87173241 -11.0625 23.125 C-17.46443491 21.39863553 -22.67125096 19.53788032 -26.5 13.875 C-27.70980186 9.8474318 -26.97496361 6.80427662 -25.0625 3.0625 C-18.17987104 -2.81291497 -7.99619389 -4.41857416 0 0 Z " fill="#639C4A" transform="translate(393.5,328.125)"/>
<path d="M0 0 C1.875 1.375 1.875 1.375 3 3 C3 3.66 3 4.32 3 5 C3.47308594 4.6390625 3.94617188 4.278125 4.43359375 3.90625 C8.91731235 0.75978081 12.40474573 -0.81843786 17.94140625 -0.4921875 C21.43671671 0.34350342 23.02540342 2.10392501 25 5 C24.90847363 8.11189674 23.76883749 9.34674377 22 12 C20.68 12 19.36 12 18 12 C17.67 11.34 17.34 10.68 17 10 C14.69 10 12.38 10 10 10 C6.30737289 15.66909854 6.71322133 20.75015025 6.9375 27.25 C6.99727811 29.23412435 7.04849804 31.21853098 7.08984375 33.203125 C7.11941162 34.07614258 7.14897949 34.94916016 7.17944336 35.84863281 C7 38 7 38 5 40 C2.26833951 40.35021288 0.67478224 40.45749311 -1.63916016 38.88867188 C-3.64690985 36.10217176 -3.35220264 33.87234596 -3.3359375 30.46875 C-3.34882812 29.18355469 -3.36171875 27.89835937 -3.375 26.57421875 C-3.37893547 24.53318699 -3.37494741 22.49264555 -3.36035156 20.45166016 C-3.35178977 18.47816784 -3.37468583 16.50461795 -3.3984375 14.53125 C-3.39505371 13.35111328 -3.39166992 12.17097656 -3.38818359 10.95507812 C-3.70529741 7.78410429 -3.70529741 7.78410429 -6.53759766 6.09179688 C-7.35019043 5.73150391 -8.1627832 5.37121094 -9 5 C-8.625 3.0625 -8.625 3.0625 -8 1 C-5.20129973 -0.39935013 -3.09501208 -0.25265405 0 0 Z " fill="#619B48" transform="translate(107,327)"/>
<path d="M0 0 C3.625 0.25 3.625 0.25 5.5625 1.625 C6.625 3.25 6.625 3.25 6.625 5.25 C7.594375 4.425 8.56375 3.6 9.5625 2.75 C13.25054014 0.1167543 16.05350089 -0.39267857 20.53515625 -0.1015625 C23.57691426 0.41013511 25.39562817 1.09254339 27.625 3.25 C28.174769 6.54861401 28.20487934 8.35118702 26.375 11.1875 C24.625 12.25 24.625 12.25 22.5 12 C20.625 11.25 20.625 11.25 19.625 10.25 C16.70961971 9.74957854 16.70961971 9.74957854 13.625 10.25 C10.96792899 13.72780294 10.24655917 16.37194847 10.18359375 20.69921875 C10.15716797 21.71177734 10.13074219 22.72433594 10.10351562 23.76757812 C10.08998047 24.81365234 10.07644531 25.85972656 10.0625 26.9375 C10.02815522 29.0248993 9.9856029 31.11218486 9.93359375 33.19921875 C9.92126709 34.12049561 9.90894043 35.04177246 9.89624023 35.9909668 C9.625 38.25 9.625 38.25 7.625 40.25 C5.125 40.5625 5.125 40.5625 2.625 40.25 C0.20329321 36.61743982 0.3205497 34.72421305 0.2109375 30.39453125 C0.19157135 29.73289474 0.1722052 29.07125824 0.1522522 28.38957214 C0.09257313 26.28067836 0.04611913 24.17172963 0 22.0625 C-0.03819066 20.63083585 -0.07724303 19.19919441 -0.1171875 17.76757812 C-0.21311773 14.26192688 -0.29719197 10.75610555 -0.375 7.25 C-2.025 6.92 -3.675 6.59 -5.375 6.25 C-4.31051492 0.3192974 -4.31051492 0.3192974 0 0 Z " fill="#609B47" transform="translate(288.375,326.75)"/>
<path d="M0 0 C3.41049703 2.13156064 3.88307099 3.54063603 4.875 7.4375 C5.00403402 11.11496954 4.97186957 12.91359546 3 16 C-0.41570212 18.38304799 -2.44856477 19 -6.625 19 C-10 18 -10 18 -12.4375 15.9375 C-14.46225274 12.13096484 -14.95291043 9.22003189 -14 5 C-10.42965778 -0.52827182 -6.14319619 -1.21715663 0 0 Z " fill="#D7E6D0" transform="translate(470,304)"/>
<path d="M0 0 C2.37507855 -0.02719556 4.74983964 -0.04693247 7.125 -0.0625 C7.79015625 -0.07087891 8.4553125 -0.07925781 9.140625 -0.08789062 C13.20681354 -0.10782292 17.0120092 0.21109839 21 1 C21 1.33 21 1.66 21 2 C19.86304688 2.23074219 18.72609375 2.46148437 17.5546875 2.69921875 C-4.23859389 7.23879322 -23.27214709 15.95750357 -42 28 C-42 25.36 -42 22.72 -42 20 C-27.52197817 11.90873674 -13.14669331 5.89352888 3 2 C2.01 1.34 1.02 0.68 0 0 Z " fill="#669E4D" transform="translate(157,220)"/>
<path d="M0 0 C2.97 0 5.94 0 9 0 C8.67 0.99 8.34 1.98 8 3 C8.66 3.33 9.32 3.66 10 4 C10.33 3.01 10.66 2.02 11 1 C11.33 1 11.66 1 12 1 C12 5.95 12 10.9 12 16 C11.01 16 10.02 16 9 16 C9 16.66 9 17.32 9 18 C6.03 18 3.06 18 0 18 C0.33 16.68 0.66 15.36 1 14 C0.01 14.33 -0.98 14.66 -2 15 C-2 10.71 -2 6.42 -2 2 C-1.01 2.33 -0.02 2.66 1 3 C0.67 2.01 0.34 1.02 0 0 Z " fill="#6BA254" transform="translate(327,152)"/>
<path d="M0 0 C2.97 0 5.94 0 9 0 C9 0.99 9 1.98 9 3 C9.66 2.67 10.32 2.34 11 2 C11 6.29 11 10.58 11 15 C10.01 15.495 10.01 15.495 9 16 C9 16.66 9 17.32 9 18 C6.03 18 3.06 18 0 18 C0.33 16.68 0.66 15.36 1 14 C0.01 14.33 -0.98 14.66 -2 15 C-2 10.71 -2 6.42 -2 2 C0.475 3.98 0.475 3.98 3 6 C2.01 4.02 1.02 2.04 0 0 Z " fill="#6FA458" transform="translate(310,152)"/>
<path d="M0 0 C0.495 0.33 0.99 0.66 1.5 1 C1.8125 3.3125 1.8125 3.3125 1.5 6 C-2.11977485 9.37845653 -6.47064919 9.61962103 -11.1953125 10.1796875 C-13.5 10 -13.5 10 -15.3046875 8.6640625 C-16.5 7 -16.5 7 -16.5 4.5 C-15.5 2 -15.5 2 -13.4375 0.1875 C-8.89468346 -1.64895775 -4.65223694 -1.86089478 0 0 Z " fill="#F4F8F3" transform="translate(75.5,350)"/>
<path d="M0 0 C2.5 1.75 2.5 1.75 4 4 C4 6.125 4 6.125 3 8 C-0.38449586 10.24578697 -3.25952047 10.21174955 -7.25 10.125 C-8.32765625 10.10695313 -9.4053125 10.08890625 -10.515625 10.0703125 C-11.33546875 10.04710937 -12.1553125 10.02390625 -13 10 C-13.33 8.68 -13.66 7.36 -14 6 C-9.61928531 1.52607862 -6.61858894 -1.24879037 0 0 Z " fill="#F0F6EE" transform="translate(345,334)"/>
<path d="M0 0 C2.875 -0.125 2.875 -0.125 6 0 C6.66 0.66 7.32 1.32 8 2 C7.69972883 3.67293936 7.36442233 5.33985384 7 7 C7.33 7.99 7.66 8.98 8 10 C5.00667261 9.0022242 4.05233685 8.2477975 2 6 C2 7.32 2 8.64 2 10 C1.34 10 0.68 10 0 10 C0 6.7 0 3.4 0 0 Z " fill="#8FB87D" transform="translate(461,308)"/>
<path d="M0 0 C2.37507855 -0.02719556 4.74983964 -0.04693247 7.125 -0.0625 C8.12273437 -0.07506836 8.12273437 -0.07506836 9.140625 -0.08789062 C13.20681354 -0.10782292 17.0120092 0.21109839 21 1 C21 1.33 21 1.66 21 2 C13.08 3.485 13.08 3.485 5 5 C4.34 4.01 3.68 3.02 3 2 C2.01 1.34 1.02 0.68 0 0 Z " fill="#91BA80" transform="translate(157,220)"/>
<path d="M0 0 C2.52588702 2.36292656 3.88820837 3.66462511 5 7 C2.03 7 -0.94 7 -4 7 C-2.92598892 4.08482708 -2.22189824 2.22189824 0 0 Z " fill="#F5F8F3" transform="translate(331,163)"/>
<path d="M0 0 C2.83328987 2.83328987 3.7191375 4.35446828 5 8 C3.35 9.65 1.7 11.3 0 13 C0 8.71 0 4.42 0 0 Z " fill="#F0F5EE" transform="translate(325,154)"/>
<path d="M0 0 C0.33 0 0.66 0 1 0 C1 4.29 1 8.58 1 13 C-3 9 -3 9 -4 6 C-2.125 2.8125 -2.125 2.8125 0 0 Z " fill="#EFF5ED" transform="translate(320,154)"/>
<path d="M0 0 C1.70884005 1.62339805 3.37446717 3.29319053 5 5 C5 5.66 5 6.32 5 7 C2.03 7 -0.94 7 -4 7 C-2 3 -2 3 0 0 Z " fill="#F6F9F4" transform="translate(314,163)"/>
<path d="M0 0 C2.50816459 2.50816459 3.61410019 3.90837736 5 7 C3.69593116 9.01920337 2.36176581 11.01924973 1 13 C0.67 13 0.34 13 0 13 C0 8.71 0 4.42 0 0 Z " fill="#F2F6EF" transform="translate(308,154)"/>
<path d="M0 0 C0.33 0 0.66 0 1 0 C1 3.96 1 7.92 1 12 C-0.65 10.35 -2.3 8.7 -4 7 C-2.92598892 4.08482708 -2.22189824 2.22189824 0 0 Z " fill="#F1F6EF" transform="translate(337,155)"/>
<path d="M0 0 C2.97 0 5.94 0 9 0 C7.68 2.31 6.36 4.62 5 7 C2.47411298 4.63707344 1.11179163 3.33537489 0 0 Z " fill="#F4F8F2" transform="translate(327,152)"/>
<path d="M0 0 C2.97 0 5.94 0 9 0 C7.68 2.31 6.36 4.62 5 7 C2.47411298 4.63707344 1.11179163 3.33537489 0 0 Z " fill="#F3F7F1" transform="translate(310,152)"/>
<path d="M0 0 C5.94 0 11.88 0 18 0 C18.33 0.66 18.66 1.32 19 2 C16.6739143 2.38063221 14.33944736 2.71269945 12 3 C11.67 2.67 11.34 2.34 11 2 C9.15108054 1.76636119 7.29511969 1.58696365 5.4375 1.4375 C4.42558594 1.35371094 3.41367188 1.26992187 2.37109375 1.18359375 C1.19740234 1.09271484 1.19740234 1.09271484 0 1 C0 0.67 0 0.34 0 0 Z " fill="#9FC290" transform="translate(182,220)"/>
<path d="M0 0 C-2.34914492 2.34914492 -3.95679446 2.73140357 -7.125 3.625 C-8.49011719 4.01558594 -8.49011719 4.01558594 -9.8828125 4.4140625 C-10.58148438 4.60742188 -11.28015625 4.80078125 -12 5 C-12.33 4.01 -12.66 3.02 -13 2 C-8.46298506 0.54815522 -4.81938524 -0.23509196 0 0 Z " fill="#7DAD68" transform="translate(194,222)"/>
<path d="M0 0 C4.95 0 9.9 0 15 0 C15 0.99 15 1.98 15 3 C12.625 3.625 12.625 3.625 10 4 C9.34 3.34 8.68 2.68 8 2 C5.34462628 1.43479997 2.70855287 1.26211802 0 1 C0 0.67 0 0.34 0 0 Z " fill="#A4C696" transform="translate(204,220)"/>
</svg>
