<?xml version="1.0" encoding="UTF-8"?>
<svg version="1.1" xmlns="http://www.w3.org/2000/svg" width="902" height="647">
<path d="M0 0 C297.66 0 595.32 0 902 0 C902 213.51 902 427.02 902 647 C604.34 647 306.68 647 0 647 C0 433.49 0 219.98 0 0 Z " fill="#FEFEFE" transform="translate(0,0)"/>
<path d="M0 0 C1.35336494 -0.0027178 2.70672839 -0.00628312 4.06008911 -0.01062012 C7.69846848 -0.0196518 11.33673302 -0.01623865 14.97511411 -0.00986195 C18.80428934 -0.00475475 22.63345555 -0.00950629 26.46263123 -0.01263428 C32.88867943 -0.01625985 39.31468148 -0.01151154 45.74072266 -0.00195312 C53.14458906 0.00893335 60.54834531 0.00539876 67.95220906 -0.00560594 C74.33814223 -0.0147136 80.72404246 -0.01594728 87.10998005 -0.0107286 C90.91134153 -0.00762855 94.71265141 -0.00714506 98.51400948 -0.01380157 C102.08873341 -0.0196255 105.66331675 -0.015487 109.23802567 -0.00401306 C111.15736453 -0.00015481 113.07671544 -0.00600848 114.99604797 -0.01226807 C125.38986734 0.03794622 134.89630483 1.29275353 144.48999023 5.38378906 C145.21661865 5.6909082 145.94324707 5.99802734 146.69189453 6.31445312 C168.69012395 15.93822328 183.80605156 33.42259698 193.05249023 55.25878906 C195.86400085 63.01272469 198.17194516 70.61068627 198.186203 78.89770508 C198.19046799 80.02170212 198.19473297 81.14569916 198.1991272 82.30375671 C198.19867401 83.52770645 198.19822083 84.75165619 198.19775391 86.01269531 C198.20279182 87.95756584 198.20279182 87.95756584 198.20793152 89.94172668 C198.21675374 93.49384782 198.21910903 97.04594484 198.2197473 100.59807587 C198.22045939 102.82256824 198.22259684 105.04705455 198.22524452 107.27154541 C198.23449562 115.04773343 198.23858015 122.82390432 198.23779297 130.60009766 C198.23719386 137.821432 198.24771332 145.04269124 198.26353663 152.26400661 C198.2766715 158.48252173 198.28197431 164.7010125 198.28133756 170.91954136 C198.2810841 174.62494611 198.28385001 178.33028424 198.29451561 182.03567505 C198.3061195 186.18040979 198.30141364 190.32497988 198.29541016 194.46972656 C198.30102966 195.67748245 198.30664917 196.88523834 198.31243896 198.1295929 C198.23489999 219.32472748 192.00761267 239.06706687 178.05249023 255.25878906 C177.53299805 255.92136719 177.01350586 256.58394531 176.47827148 257.26660156 C164.91388284 271.54708148 144.5380563 282.55348221 126.32320213 285.05088234 C121.18934706 285.52093888 116.02294482 285.40593976 110.87207031 285.40405273 C108.89509155 285.40909065 108.89509155 285.40909065 106.87817383 285.41423035 C103.27665313 285.4230309 99.67515622 285.42540685 96.0736258 285.42604613 C93.81797367 285.42675909 91.56232751 285.4288981 89.30667686 285.43154335 C81.421407 285.44078506 73.536154 285.44487988 65.65087891 285.4440918 C58.32723674 285.44349193 51.00366844 285.45402887 43.68004495 285.46983546 C37.37148471 285.48296081 31.06294846 285.48827358 24.75437468 285.48763639 C20.99593516 285.48738278 17.2375613 285.49015706 13.47913551 285.50081444 C9.93895835 285.51057944 6.39890846 285.51051782 2.8587265 285.50329781 C0.95980199 285.50177315 -0.93912275 285.51004041 -2.83802795 285.51873779 C-26.95647158 285.4314607 -47.81613931 276.0061288 -64.94750977 259.25878906 C-81.60589804 241.69842376 -88.24072009 219.49425567 -88.25390625 195.71362305 C-88.26222977 194.41590469 -88.27055328 193.11818634 -88.27912903 191.78114319 C-88.30085642 188.25588805 -88.30984353 184.73071949 -88.31495547 181.205405 C-88.31862591 178.99137364 -88.32487957 176.77736407 -88.33195686 174.56334114 C-88.35637857 166.80613355 -88.36948683 159.04899209 -88.37304688 151.29174805 C-88.37667358 144.11510636 -88.40652538 136.9388945 -88.44845146 129.76238388 C-88.48340317 123.55721097 -88.49859959 117.35217878 -88.49929291 111.14690834 C-88.5000775 107.46026551 -88.50843078 103.77406161 -88.53729057 100.08752251 C-88.67698661 81.08453339 -88.52213944 62.20840714 -78.69750977 45.25878906 C-78.31256348 44.56712646 -77.92761719 43.87546387 -77.53100586 43.1628418 C-66.41326186 23.75991443 -47.64038941 8.30753154 -25.94750977 2.25878906 C-17.26094911 0.42207357 -8.85856028 -0.0289379 0 0 Z " fill="#5D9943" transform="translate(408.947509765625,97.7412109375)"/>
<path d="M0 0 C4.71508059 3.53631044 8.20314711 7.47380776 11.73266602 12.19165039 C13.88397274 15.00905885 13.88397274 15.00905885 16.35791016 17.1159668 C21.88894726 22.41839682 23.51707622 26.42065401 23.85350037 33.95300293 C23.89707828 39.03871545 23.75147175 44.10586336 23.5625 49.1875 C23.51728972 51.30525315 23.4762367 53.42309935 23.43945312 55.54101562 C23.34093896 60.69633283 23.1860185 65.84712846 23 71 C25.31 71 27.62 71 30 71 C30 72.32 30 73.64 30 75 C27.36 75 24.72 75 22 75 C22.763125 75.763125 23.52625 76.52625 24.3125 77.3125 C25.199375 78.199375 26.08625 79.08625 27 80 C27.598125 80.45375 28.19625 80.9075 28.8125 81.375 C30.76866678 84.05185981 30.18066268 86.80829261 30 90 C26.3879725 88.43394612 23.74476517 86.23242043 20.8125 83.625 C19.49185547 82.46871094 19.49185547 82.46871094 18.14453125 81.2890625 C16.05363794 79.05725289 15.34697237 77.97988034 15 75 C11.535 75.495 11.535 75.495 8 76 C9.00778593 82.55060854 14.23902787 87.59758465 18.4375 92.4375 C19.41237271 93.59428211 20.38634377 94.75182474 21.359375 95.91015625 C22.80826816 97.62651386 24.25708185 99.26312437 25.828125 100.87109375 C30.2165087 105.72605848 29.43255264 111.79457283 29.17578125 117.96484375 C29.11777344 118.96644531 29.05976562 119.96804688 29 121 C24.71 121 20.42 121 16 121 C15.814375 119.288125 15.62875 117.57625 15.4375 115.8125 C13.98051946 107.08087717 9.61281041 100.23100069 5.01953125 92.79296875 C1.50810529 87.03712619 -0.86907756 82.80796682 -1 76 C-3.41645782 75.83312552 -3.41645782 75.83312552 -6 76 C-8.42522685 77.99283537 -8.42522685 77.99283537 -8.3125 81.9140625 C-8.16169552 88.64909819 -6.03547673 94.88609641 -4.1328125 101.296875 C-2.22125962 108.08743904 -1.72275086 113.94169896 -2 121 C-6.95 121 -11.9 121 -17 121 C-17.06058594 119.62585938 -17.12117188 118.25171875 -17.18359375 116.8359375 C-17.26804164 115.01561629 -17.35268749 113.19530426 -17.4375 111.375 C-17.47681641 110.47136719 -17.51613281 109.56773437 -17.55664062 108.63671875 C-17.77635733 104.0057667 -18.20200026 99.57214605 -19 95 C-19.11171758 92.98128932 -19.1744564 90.95925752 -19.1875 88.9375 C-19.20167969 87.93589844 -19.21585937 86.93429687 -19.23046875 85.90234375 C-18.89992025 81.73967362 -17.963557 78.963557 -15 76 C-19.92195363 75.50403432 -19.92195363 75.50403432 -24.13134766 77.68237305 C-30.11189811 85.09984959 -29.78570002 97.58395648 -30.625 106.6875 C-30.86338129 109.19177148 -31.10535904 111.69570419 -31.3515625 114.19921875 C-31.50359131 115.83636841 -31.50359131 115.83636841 -31.65869141 117.5065918 C-32 120 -32 120 -33 121 C-35.53049402 121.07313567 -38.03304837 121.09247527 -40.5625 121.0625 C-41.62887695 121.05573242 -41.62887695 121.05573242 -42.71679688 121.04882812 C-44.47790013 121.03700864 -46.23896036 121.01907263 -48 121 C-47.36177491 113.46894394 -45.84868758 106.32330345 -44 99 C-43.67708984 97.66195312 -43.67708984 97.66195312 -43.34765625 96.296875 C-41.26609329 88.4633008 -37.90387465 80.63737584 -31 76 C-36.77787841 76.3466727 -40.01857616 77.92996881 -44 82 C-45.70231428 84.20596357 -47.11398866 86.5228231 -48.5 88.9375 C-48.88236816 89.59065186 -49.26473633 90.24380371 -49.65869141 90.91674805 C-55.1101918 100.43682303 -59.11354496 110.41633153 -62 121 C-66.62 121 -71.24 121 -76 121 C-75.50321442 115.22674941 -73.87673249 111.00851639 -71.125 105.9375 C-70.72861328 105.20160645 -70.33222656 104.46571289 -69.92382812 103.70751953 C-63.85783431 92.79578415 -56.54461481 82.92559886 -46 76 C-52.83908197 75.09672502 -56.66274097 76.94755391 -62.27734375 80.84765625 C-74.65750341 90.63455434 -83.96641462 106.13893841 -89 121 C-93.95 121 -98.9 121 -104 121 C-96.18795883 101.77410428 -81.80832157 85.04773487 -63 76 C-73.23917399 75.12858094 -82.04099238 81.05225512 -90 87 C-99.946397 95.40645613 -108.81907381 106.00664392 -114.25 117.875 C-115.30859375 119.7109375 -115.30859375 119.7109375 -117 121 C-121.73635126 121.66189559 -126.25144172 121.46264709 -131 121 C-121.38511047 99.86960324 -100.88478494 84.67115121 -80 76 C-102.28653424 78.75739008 -121.27251195 92.50254173 -136 109 C-137.74452562 111.28833036 -139.36918062 113.62789908 -141 116 C-141.33 116 -141.66 116 -142 116 C-142.72668835 112.1390094 -142.84201527 108.85270942 -142 105 C-138.97123404 100.89392907 -135.10868725 97.96258581 -131 95 C-130.10112061 94.34354492 -130.10112061 94.34354492 -129.18408203 93.67382812 C-118.16561342 85.73476943 -106.82870324 80.44165934 -94 76 C-110.46311919 77.08572388 -123.84079754 82.44818561 -137.55859375 91.49609375 C-140 93 -140 93 -142 93 C-142 91.35 -142 89.7 -142 88 C-132.84853228 82.31560816 -123.23095982 79.17396113 -113 76 C-122.98462315 75.78458202 -131.49562012 77.63854312 -140 83 C-140.66 83 -141.32 83 -142 83 C-142 81.35 -142 79.7 -142 78 C-139.69 77.01 -137.38 76.02 -135 75 C-137.31 74.67 -139.62 74.34 -142 74 C-142 73.01 -142 72.02 -142 71 C-138.04 71 -134.08 71 -130 71 C-130 66.38 -130 61.76 -130 57 C-130.66 57 -131.32 57 -132 57 C-135.33547218 50.88496767 -135.96011752 44.90908094 -135 38 C-133.17468028 34.33393533 -131.87223949 32.46878049 -128 31 C-124.33854576 35.64220091 -123.36648023 39.10418037 -123.5 45.0625 C-123.48453125 45.75666016 -123.4690625 46.45082031 -123.453125 47.16601562 C-123.49153864 52.22221073 -124.86753456 54.2240436 -128 58 C-128.69102482 61.33902191 -128.69102482 61.33902191 -128.75 64.8125 C-128.8325 66.854375 -128.915 68.89625 -129 71 C-123.39 71 -117.78 71 -112 71 C-112.12375 68.56625 -112.2475 66.1325 -112.375 63.625 C-112.40899902 62.86010254 -112.44299805 62.09520508 -112.47802734 61.30712891 C-112.62219908 57.20221481 -112.62219908 57.20221481 -115 54 C-116.89944184 48.47323696 -117.19123107 41.11592756 -115.10546875 35.66015625 C-114 33.75 -114 33.75 -112 31 C-110.1875 31.125 -110.1875 31.125 -108 32 C-105.25565153 36.44544583 -104.59113501 39.8755117 -104.625 45.0625 C-104.61339844 46.84333984 -104.61339844 46.84333984 -104.6015625 48.66015625 C-105.02750066 52.23052024 -105.80860926 54.17257146 -108 57 C-108.66 57 -109.32 57 -110 57 C-110 61.62 -110 66.24 -110 71 C-104.06 71 -98.12 71 -92 71 C-92.1546875 67.6278125 -92.1546875 67.6278125 -92.3125 64.1875 C-92.37050781 62.92292969 -92.42851562 61.65835938 -92.48828125 60.35546875 C-93.03134687 56.79445066 -93.40563498 56.22088317 -96 54 C-97.19912289 50.75818522 -97.19805448 47.49523307 -97.25 44.0625 C-97.27578125 43.04285156 -97.3015625 42.02320313 -97.328125 40.97265625 C-96.95238381 37.56862002 -96.01680568 35.74091182 -94 33 C-91.8125 31.6875 -91.8125 31.6875 -90 31 C-86.33237928 35.62439134 -85.82438329 39.01111745 -85.75 44.875 C-85.72421875 46.08929688 -85.6984375 47.30359375 -85.671875 48.5546875 C-86.02143423 52.22505936 -86.74055099 54.11536365 -89 57 C-89.66 57 -90.32 57 -91 57 C-91 61.62 -91 66.24 -91 71 C-85.39 71 -79.78 71 -74 71 C-74.18259646 61.97608576 -74.18259646 61.97608576 -76.5625 53.4375 C-78.94237896 47.7464851 -79.35832526 40.70210219 -77.203125 34.828125 C-76.1875 33.1875 -76.1875 33.1875 -74 31 C-73.01 31 -72.02 31 -71 31 C-66.70229405 37.84946886 -65.90899842 43.97107571 -67 52 C-68.30406884 54.01920337 -69.63823419 56.01924973 -71 58 C-71.65576652 62.35428971 -71.81994414 66.58863143 -72 71 C-65.4 71 -58.8 71 -52 71 C-52.06960938 67.76058594 -52.13921875 64.52117187 -52.2109375 61.18359375 C-52.25778118 58.03283205 -52.29418372 54.88210971 -52.32958984 51.73120117 C-52.35969295 49.54775522 -52.4005857 47.3644295 -52.45263672 45.18139648 C-52.52573563 42.03599335 -52.55952167 38.8921937 -52.5859375 35.74609375 C-52.61690521 34.7760289 -52.64787292 33.80596405 -52.67977905 32.8065033 C-52.68272864 26.8158661 -51.73107149 23.59383962 -47.545578 19.23738098 C-45.32647068 17.46077624 -43.76034695 17.12473896 -40.9375 17.25 C-40.12152344 17.25515625 -39.30554688 17.2603125 -38.46484375 17.265625 C-34.72202158 18.38076061 -33.36589847 19.87309597 -31 23 C-30.30492273 26.66744877 -30.41795198 30.2671218 -30.51171875 33.98828125 C-30.51879349 35.04661667 -30.52586823 36.10495209 -30.53315735 37.19535828 C-30.56109781 40.56846437 -30.62383879 43.93989746 -30.6875 47.3125 C-30.71258318 49.60218953 -30.73539631 51.89190514 -30.75585938 54.18164062 C-30.81092392 59.78840291 -30.89719705 65.39391802 -31 71 C-28.03 71 -25.06 71 -22 71 C-22 56.15 -22 41.3 -22 26 C-21.34 26 -20.68 26 -20 26 C-19.66548828 25.20142578 -19.66548828 25.20142578 -19.32421875 24.38671875 C-17.54844089 21.18612798 -15.20537919 18.55806475 -12.8125 15.8125 C-8.38057321 10.65857098 -4.10430936 5.42105024 0 0 Z " fill="#FAFBF9" transform="translate(520,180)"/>
<path d="M0 0 C5.33930318 1.94662095 8.2719388 4.98036739 11 10 C11 10.66 11 11.32 11 12 C11.53109375 11.52949219 12.0621875 11.05898438 12.609375 10.57421875 C13.31578125 9.95160156 14.0221875 9.32898438 14.75 8.6875 C15.44609375 8.07261719 16.1421875 7.45773437 16.859375 6.82421875 C23.6557525 1.0324153 29.21279895 -0.48230286 38.16015625 -0.31640625 C44.34307246 0.37247437 47.91272621 4.67229834 52 9 C52.86625 8.236875 53.7325 7.47375 54.625 6.6875 C61.27561907 1.2530821 67.47194545 -0.13500878 76 0 C82.41906945 0.838229 85.97243071 4.55567597 90.140625 9.2578125 C95.44861155 17.08597753 96.5566777 23.75109723 96.5625 33.125 C96.54569767 42.96600404 96.54569767 42.96600404 100 52 C102.44309577 53.91744593 102.44309577 53.91744593 105 55 C105.66 55.33 106.32 55.66 107 56 C107.3125 58.25 107.3125 58.25 107 61 C103.6913412 64.13451887 101.29627434 65.87535824 96.75 66.3125 C92.1635629 65.93029691 90.40010669 65.09787498 87 62 C83.0619851 55.59094032 82.45994985 49.55938976 82.4375 42.1875 C82.70123118 28.76218355 82.70123118 28.76218355 77.203125 17.234375 C73.2792724 15.03590439 69.34708184 15.14044735 65 16 C60.57642889 19.77846699 59.31514631 23.45541784 58 29 C57.81098673 31.6204963 57.6997286 34.1438993 57.69140625 36.76171875 C57.6662728 38.22461382 57.64087444 39.68750435 57.61523438 41.15039062 C57.58640845 43.42813178 57.56235022 45.70579499 57.54370117 47.98364258 C57.52205104 50.20171078 57.48265063 52.41894103 57.44140625 54.63671875 C57.42795166 55.95373779 57.41449707 57.27075684 57.40063477 58.62768555 C56.98409335 62.13389307 56.53239282 63.58586286 54 66 C51.125 66.5625 51.125 66.5625 48 66 C44.89835231 63.44975635 43.27433584 61.82300753 42 58 C41.89486413 55.66439118 41.8447693 53.32616486 41.82421875 50.98828125 C41.80100504 49.57615722 41.77688709 48.16404783 41.75195312 46.75195312 C41.71699064 44.53806984 41.68757452 42.32472018 41.67407227 40.1105957 C41.73464552 28.437196 41.73464552 28.437196 37 18 C33.52980663 15.92549842 31.0499197 15.51400964 27 16 C22.09368706 18.50125758 19.90487406 20.85684004 18 26 C15.80526227 34.61309915 15.36668001 43.32125036 14.87695312 52.16210938 C14.80541016 53.22880859 14.73386719 54.29550781 14.66015625 55.39453125 C14.60480713 56.35206299 14.54945801 57.30959473 14.49243164 58.29614258 C13.9147236 61.46823801 12.95468606 63.44224513 11 66 C7.05587059 66.6573549 4.84372459 66.44266959 1.29736328 64.58203125 C-2.17931358 60.6745568 -1.57425235 57.17634062 -1.3828125 52.125 C-1.36862274 51.16352051 -1.35443298 50.20204102 -1.33981323 49.21142578 C-1.29198506 46.13995335 -1.21104279 43.07062202 -1.125 40 C-1.04953656 36.92955128 -0.98148666 33.85954904 -0.93161011 30.78857422 C-0.89961805 28.87841455 -0.8524044 26.96843581 -0.7883606 25.05908203 C-0.65424285 20.02944611 -0.65424285 20.02944611 -2.38623047 15.40063477 C-3.89415729 13.83791315 -3.89415729 13.83791315 -5.9375 13.71484375 C-6.9584375 13.82505859 -6.9584375 13.82505859 -8 13.9375 C-11.79942693 14.11909026 -11.79942693 14.11909026 -14 12.8125 C-15.44177487 10.19928304 -15.63114905 8.94536225 -15 6 C-9.91040063 1.13168756 -7.0447783 -0.57744084 0 0 Z " fill="#609B47" transform="translate(307,445)"/>
<path d="M0 0 C8.31800291 -0.27618369 15.51113822 1.78521155 22 7.12109375 C27.85108299 13.51586144 30.32459269 19.11104531 30.1953125 27.828125 C30.1924826 28.55351974 30.18965271 29.27891449 30.18673706 30.02629089 C30.17559799 32.32889743 30.15050566 34.63110602 30.125 36.93359375 C30.11496206 38.5006454 30.10583763 40.06770318 30.09765625 41.63476562 C30.0756793 45.46369353 30.04119339 49.29232631 30 53.12109375 C31.06541016 53.21197266 31.06541016 53.21197266 32.15234375 53.3046875 C33.07144531 53.38847656 33.99054688 53.47226562 34.9375 53.55859375 C35.85402344 53.63980469 36.77054687 53.72101563 37.71484375 53.8046875 C40 54.12109375 40 54.12109375 41 55.12109375 C41.375 57.93359375 41.375 57.93359375 41 61.12109375 C37.31614784 64.80494591 34.43252 66.00171708 29.25 66.43359375 C24.53202873 66.38126875 21.81197399 64.84393232 18 62.12109375 C17.67 61.13109375 17.34 60.14109375 17 59.12109375 C16.3709375 59.45882812 15.741875 59.7965625 15.09375 60.14453125 C5.17776066 65.31159799 -5.13519971 68.52828342 -16.40234375 65.46875 C-21.34552372 63.25807643 -25.10660822 59.68644548 -28 55.12109375 C-29.79179798 49.68014624 -29.96409845 44.08785459 -27.4375 38.93359375 C-20.38596065 30.7972022 -13.17332092 26.70657519 -2.2734375 25.92578125 C4.78429767 25.65776599 9.84322904 26.63847583 16 30.12109375 C15.74279326 28.53548982 15.46861201 26.95263451 15.1875 25.37109375 C15.03667969 24.489375 14.88585937 23.60765625 14.73046875 22.69921875 C13.92923096 19.87132065 12.99043461 18.26980388 11 16.12109375 C5.82327255 14.05040277 0.51320347 13.1962404 -5 14.12109375 C-7.66094225 15.27470467 -10.15782053 16.60480004 -12.69921875 18 C-15.62183976 19.42409546 -17.80170739 19.68079496 -21 19.12109375 C-23 17.12109375 -23 17.12109375 -23.4375 13.80859375 C-23 10.12109375 -23 10.12109375 -21 7.43359375 C-14.22762024 2.21321769 -8.39652119 0.50838312 0 0 Z " fill="#609A46" transform="translate(186,444.87890625)"/>
<path d="M0 0 C3.625 0.25 3.625 0.25 5.32453918 1.48616028 C6.96281048 3.70817878 7.01892083 4.97594752 7.05737305 7.72143555 C7.08706429 9.07249641 7.08706429 9.07249641 7.11735535 10.45085144 C7.12374527 11.41968765 7.13013519 12.38852386 7.13671875 13.38671875 C7.16364555 14.87858452 7.16364555 14.87858452 7.19111633 16.40058899 C7.24533016 19.5795161 7.27915083 22.75829213 7.3125 25.9375 C7.34566326 28.09181795 7.38015199 30.24611594 7.41601562 32.40039062 C7.50106272 37.68345827 7.56936558 42.96654521 7.625 48.25 C8.21667969 47.69570313 8.80835938 47.14140625 9.41796875 46.5703125 C10.20816406 45.84585938 10.99835937 45.12140625 11.8125 44.375 C12.58980469 43.65570313 13.36710938 42.93640625 14.16796875 42.1953125 C20.07779372 37.51630958 26.35884624 37.47889797 33.625 38.25 C39.12671565 40.69520696 42.46623557 45.23919127 45.625 50.25 C46.58696884 53.13590652 46.80235019 55.17661625 46.90625 58.1875 C46.96232422 59.65509766 46.96232422 59.65509766 47.01953125 61.15234375 C47.07173828 62.68568359 47.07173828 62.68568359 47.125 64.25 C47.26549812 68.25159468 47.42712335 72.25080873 47.625 76.25 C47.67398438 77.260625 47.72296875 78.27125 47.7734375 79.3125 C47.83789062 80.281875 47.90234375 81.25125 47.96875 82.25 C48.04899414 83.549375 48.04899414 83.549375 48.13085938 84.875 C48.71528685 87.68394787 49.69448713 89.15023261 51.625 91.25 C53.6250061 91.90278798 53.6250061 91.90278798 55.75 91.9375 C59.625 92.25 59.625 92.25 60.625 93.25 C61.0625 96.0625 61.0625 96.0625 60.625 99.25 C57.27698604 102.59801396 54.29561629 103.55219419 49.6875 103.8125 C45.31415842 103.60862994 42.46419128 102.6731022 39.09375 99.875 C33.78068105 93.99671095 32.5467807 87.01675044 32.4140625 79.3203125 C32.38570312 78.19496094 32.35734375 77.06960938 32.328125 75.91015625 C32.27621777 73.56135426 32.23189456 71.21237191 32.1953125 68.86328125 C32.02506384 62.65629874 31.83674476 57.65400968 28.625 52.25 C25.83018191 50.82562248 25.83018191 50.82562248 22.625 51.25 C16.42127803 53.96412836 13.39619919 59.24185387 10.625 65.25 C7.32200471 73.75957688 7.19100595 81.82615473 7.18554688 90.85546875 C7.16685547 91.88027344 7.14816406 92.90507812 7.12890625 93.9609375 C7.12705322 94.88181152 7.1252002 95.80268555 7.12329102 96.75146484 C6.47188523 100.01774942 5.2069143 101.20965797 2.625 103.25 C-1.02850812 103.87187372 -2.78067175 103.58123486 -6.02023315 101.77574158 C-9.42029254 98.12881094 -9.11816147 95.16883573 -9.11376953 90.33813477 C-9.1322847 89.43850006 -9.15079987 88.53886536 -9.1698761 87.61196899 C-9.22416099 84.63823688 -9.24215225 81.66557457 -9.2578125 78.69140625 C-9.28362753 76.62399991 -9.31089995 74.55661129 -9.33956909 72.48924255 C-9.39391151 68.15581931 -9.43026241 63.82270884 -9.45410156 59.48901367 C-9.48613238 53.93537878 -9.56307023 48.38344414 -9.65356636 42.83049107 C-9.71812042 38.56095304 -9.75862599 34.29144503 -9.79189682 30.02155876 C-9.81078493 27.97415865 -9.83720191 25.92681367 -9.87128067 23.87961006 C-9.91537011 21.01638063 -9.92702448 18.15478791 -9.93017578 15.29125977 C-9.94964767 14.44590164 -9.96911957 13.60054352 -9.98918152 12.72956848 C-9.95727901 8.33216556 -9.80326968 6.77014976 -6.90280151 3.24742126 C-6.06862701 2.58827225 -5.23445251 1.92912323 -4.375 1.25 C-3.375 0.25 -3.375 0.25 0 0 Z " fill="#609B46" transform="translate(747.375,407.75)"/>
<path d="M0 0 C4.07785444 2.80918861 5.71872143 6.54139918 7.8125 10.9375 C8.3075 11.9275 8.3075 11.9275 8.8125 12.9375 C9.57951215 19.81546141 8.96088884 24.3699255 4.8125 29.9375 C-0.96999675 35.71999675 -6.85344754 37.18371047 -14.81054688 37.2109375 C-15.57431641 37.20320313 -16.33808594 37.19546875 -17.125 37.1875 C-17.88490234 37.19523437 -18.64480469 37.20296875 -19.42773438 37.2109375 C-24.65426955 37.19308426 -29.1633606 36.37786761 -34.1875 34.9375 C-33.40846639 38.37031478 -32.555911 41.68887074 -31.1875 44.9375 C-28.76495167 46.62650615 -28.76495167 46.62650615 -26.1875 46.9375 C-25.5275 47.2675 -24.8675 47.5975 -24.1875 47.9375 C-21.94004466 48.06139818 -19.68833658 48.1131285 -17.4375 48.125 C-16.22578125 48.13917969 -15.0140625 48.15335937 -13.765625 48.16796875 C-10.20599976 47.93869158 -7.52145996 47.14260226 -4.1875 45.9375 C2.16634615 45.50673077 2.16634615 45.50673077 5.8125 47.9375 C6.30028611 51.70042141 6.45123144 53.97940284 4.3125 57.1875 C-4.24935312 63.18079719 -15.05281461 63.79596747 -25.1875 62.9375 C-32.61058389 61.04574455 -40.36388977 57.36330263 -44.4375 50.625 C-49.36486137 40.55449085 -51.64551606 29.95022555 -48.61621094 18.84277344 C-45.80131983 11.09512077 -41.61072166 4.77058173 -34.1875 0.9375 C-33.43726563 0.53015625 -32.68703125 0.1228125 -31.9140625 -0.296875 C-21.38073271 -5.27378811 -10.64801364 -3.54933788 0 0 Z " fill="#609B47" transform="translate(645.1875,448.0625)"/>
<path d="M0 0 C1.41929286 -0.01423068 2.83853641 -0.03505944 4.25762939 -0.06280518 C20.05829913 -0.34476522 20.05829913 -0.34476522 26.64578247 4.35348511 C28.81129363 7.60175185 29.197352 8.58442668 28.64578247 12.35348511 C27.33328247 14.66598511 27.33328247 14.66598511 24.64578247 16.35348511 C20.19225749 16.84679864 15.74719629 16.82486389 11.36453247 15.84176636 C7.43431643 15.13590859 3.5679472 15.20946523 -0.41671753 15.22848511 C-1.59137573 15.22268433 -1.59137573 15.22268433 -2.7897644 15.21676636 C-9.40305002 15.22747613 -15.70370025 15.79927533 -22.35421753 16.35348511 C-22.35421753 24.93348511 -22.35421753 33.51348511 -22.35421753 42.35348511 C-19.48734253 42.20911011 -16.62046753 42.06473511 -13.66671753 41.91598511 C-12.77251099 41.87288208 -11.87830444 41.82977905 -10.95700073 41.78536987 C-6.98355074 41.57459923 -3.2544603 41.16630881 0.64578247 40.35348511 C2.8087964 40.19018826 4.97714739 40.0891207 7.14578247 40.04098511 C8.24921997 40.00360229 9.35265747 39.96621948 10.48953247 39.92770386 C14.34817632 40.44823873 15.97702693 41.55575625 18.64578247 44.35348511 C18.77078247 47.91598511 18.77078247 47.91598511 17.64578247 51.35348511 C11.42976058 57.36899017 -1.46499952 55.48226045 -9.47921753 55.41598511 C-11.05703003 55.40921753 -11.05703003 55.40921753 -12.66671753 55.40231323 C-15.22927974 55.39066522 -17.7917163 55.37431064 -20.35421753 55.35348511 C-20.28203003 56.29965698 -20.20984253 57.24582886 -20.13546753 58.22067261 C-19.58787302 65.79782995 -19.19290747 73.38276545 -19.04171753 80.97848511 C-19.01206909 81.7234021 -18.98242065 82.46831909 -18.95187378 83.23580933 C-18.89524528 88.4468107 -20.04202351 91.35918805 -23.35421753 95.35348511 C-26.46971625 96.91123447 -29.95865633 96.91829133 -33.35421753 96.35348511 C-36.25124781 94.0291426 -36.3415149 93.46620213 -36.78659058 89.51681519 C-36.82828989 87.8858675 -36.853496 86.2544496 -36.86593628 84.62301636 C-36.88415939 83.73599533 -36.90238251 82.8489743 -36.92115784 81.93507385 C-36.97678567 79.01207418 -37.01035183 76.08933905 -37.04171753 73.16598511 C-37.07120724 71.14514262 -37.10132429 69.12430919 -37.13204956 67.10348511 C-37.19195799 62.93378389 -37.24068819 58.76412832 -37.28244019 54.59420776 C-37.33496789 49.558689 -37.42465291 44.52480429 -37.52915955 39.49012756 C-37.60089196 35.81651721 -37.65027655 32.14286008 -37.6932373 28.46881104 C-37.71712628 26.73237192 -37.74910357 24.99602429 -37.78936768 23.2598877 C-37.84281402 20.84276301 -37.86426942 18.4273679 -37.87765503 16.00973511 C-37.90026901 15.30338425 -37.922883 14.59703339 -37.94618225 13.86927795 C-37.92947135 9.94167397 -37.46302133 8.48192478 -34.88400269 5.43746948 C-34.04917358 4.74975464 -33.21434448 4.06203979 -32.35421753 3.35348511 C-32.02421753 3.02348511 -31.69421753 2.69348511 -31.35421753 2.35348511 C-21.0374077 0.30210202 -10.48533511 0.09605952 0 0 Z " fill="#619B48" transform="translate(499.3542175292969,413.6465148925781)"/>
<path d="M0 0 C8.18390431 -0.2277059 15.35927305 -0.40203701 22.60595703 3.82519531 C24.60595703 6.07519531 24.60595703 6.07519531 25.16845703 9.07519531 C24.60595703 12.07519531 24.60595703 12.07519531 23.16845703 14.45019531 C18.87474369 17.17303792 14.14057632 16.62822739 9.28417969 15.56860352 C6.60366289 15.07477266 4.160601 14.94589748 1.43798828 14.94238281 C0.46152344 14.94109375 -0.51494141 14.93980469 -1.52099609 14.93847656 C-3.0359668 14.94427734 -3.0359668 14.94427734 -4.58154297 14.95019531 C-5.5721875 14.94632812 -6.56283203 14.94246094 -7.58349609 14.93847656 C-8.56640625 14.93976563 -9.54931641 14.94105469 -10.56201172 14.94238281 C-11.44139404 14.94351074 -12.32077637 14.94463867 -13.22680664 14.94580078 C-17.62832944 15.12562095 -22.01071065 15.63686208 -26.39404297 16.07519531 C-26.39404297 24.65519531 -26.39404297 33.23519531 -26.39404297 42.07519531 C-23.71279297 41.93082031 -21.03154297 41.78644531 -18.26904297 41.63769531 C-17.43614746 41.59459229 -16.60325195 41.55148926 -15.74511719 41.50708008 C-11.55731299 41.27076042 -7.53326616 40.7773344 -3.39404297 40.07519531 C-1.20991262 39.91525299 0.97902907 39.81180881 3.16845703 39.76269531 C4.26287109 39.7253125 5.35728516 39.68792969 6.48486328 39.64941406 C10.32027566 40.17264303 11.95028134 41.29634357 14.60595703 44.07519531 C14.73095703 47.63769531 14.73095703 47.63769531 13.60595703 51.07519531 C7.38993514 57.09070037 -5.50482496 55.20397065 -13.51904297 55.13769531 C-15.09685547 55.13092773 -15.09685547 55.13092773 -16.70654297 55.12402344 C-19.26910518 55.11237543 -21.83154174 55.09602084 -24.39404297 55.07519531 C-24.15427734 56.64914062 -24.15427734 56.64914062 -23.90966797 58.25488281 C-23.16851198 64.22355394 -23.17107129 70.19315037 -23.14404297 76.20019531 C-23.12341797 77.35390625 -23.10279297 78.50761719 -23.08154297 79.69628906 C-23.03234923 90.35903273 -23.03234923 90.35903273 -26.39404297 95.07519531 C-29.52346762 96.63990764 -33.0048652 96.77221489 -36.39404297 96.07519531 C-38.5012207 94.56616211 -38.5012207 94.56616211 -40.39404297 92.07519531 C-40.73224244 89.17968025 -40.83826363 86.6783543 -40.74951172 83.79394531 C-40.74148026 82.98461548 -40.73344879 82.17528564 -40.72517395 81.34143066 C-40.69622116 78.75201524 -40.64011864 76.16409513 -40.58154297 73.57519531 C-40.52482184 70.18987328 -40.4789838 66.80447975 -40.43701172 63.41894531 C-40.41962448 62.18223839 -40.41962448 62.18223839 -40.40188599 60.92054749 C-40.34720167 55.60576065 -40.61553217 50.41446815 -41.1472168 45.12353516 C-41.62611624 39.20905595 -41.61840025 33.27621607 -41.63427734 27.34545898 C-41.64413743 25.11634059 -41.67535237 22.88808923 -41.70654297 20.65917969 C-41.71306173 19.22624234 -41.7183166 17.79329856 -41.72216797 16.36035156 C-41.73151367 15.08039307 -41.74085937 13.80043457 -41.75048828 12.48168945 C-41.36639808 8.81099728 -40.62602677 6.98023925 -38.39404297 4.07519531 C-32.03166158 -0.16639228 -22.71967066 0.78482081 -15.26904297 0.51269531 C-14.16117432 0.47168701 -13.05330566 0.43067871 -11.91186523 0.38842773 C-7.94155192 0.24801173 -3.9708259 0.12472103 0 0 Z " fill="#5F9A46" transform="translate(125.39404296875,413.9248046875)"/>
<path d="M0 0 C2.29331213 2.47502265 2.51413659 3.26949221 3.125 6.8125 C2.5 10.1875 2.5 10.1875 0.8125 12.625 C-1.5 14.1875 -1.5 14.1875 -3.875 14.8125 C-7.35808788 13.98319336 -8.65890368 12.15269176 -11.046875 9.58984375 C-13.16847849 7.54238232 -14.5615808 7.32106451 -17.5 7.1875 C-18.66789063 7.11402344 -18.66789063 7.11402344 -19.859375 7.0390625 C-23.88152877 6.88436428 -26.85522487 6.92958995 -30.625 8.4375 C-31.24375 9.015 -31.8625 9.5925 -32.5 10.1875 C-32.5 11.5075 -32.5 12.8275 -32.5 14.1875 C-27.50463124 16.63977194 -22.65281959 18.47003742 -17.29101562 19.90185547 C-9.12900378 22.09257951 -0.08159548 24.55442104 4.734375 32.12890625 C6.48919691 36.84722844 6.00351577 41.67695269 4.4375 46.375 C-0.11455194 52.98281733 -6.05475024 56.88498179 -13.8515625 58.75 C-21.22623874 59.9682356 -30.57868829 60.3828791 -37.5 57.1875 C-46.32514286 50.53721429 -46.32514286 50.53721429 -48.5 46.1875 C-48.95641838 38.99891046 -48.95641838 38.99891046 -47.375 36.1875 C-44.3414782 34.56962171 -42.90681851 34.46682685 -39.5 35.1875 C-37.51946619 37.07800955 -35.87174575 39.06676261 -34.2109375 41.2421875 C-31.61377387 44.19512697 -29.62969032 45.06481149 -25.73046875 45.48828125 C-19.51614128 45.51221319 -14.98688926 45.18034869 -9.5 42.1875 C-9.53093173 39.77164426 -9.53093173 39.77164426 -10.5 37.1875 C-14.25589276 34.47491078 -18.29838639 33.75741798 -22.75 32.8125 C-31.69248428 30.86271176 -41.01291795 27.35800096 -46.3125 19.5 C-48.18559855 14.27504088 -48.67182457 9.95726716 -46.46875 4.75 C-42.96074065 -1.17463801 -39.05740427 -3.90573706 -32.5 -5.8125 C-20.55728454 -8.6225507 -9.38728046 -8.10522132 0 0 Z " fill="#609B46" transform="translate(716.5,451.8125)"/>
<path d="M0 0 C3.49166062 2.12535864 5.71615585 4.63433493 8 8 C8.67095703 7.38511719 8.67095703 7.38511719 9.35546875 6.7578125 C9.96003906 6.21898437 10.56460938 5.68015625 11.1875 5.125 C11.77917969 4.59132813 12.37085938 4.05765625 12.98046875 3.5078125 C18.72623573 -0.78206382 25.09278116 -0.78512366 32 0 C35.31362881 1.34319179 37.4816391 3.4816391 40 6 C40.4498953 10.57393555 40.53136727 12.95852016 38.4375 17.0625 C36 19 36 19 32.4375 19 C29 18 29 18 27.5625 16.4375 C25.29002211 14.34682034 22.99979385 14.34761235 20.00390625 14.44140625 C16.78527275 15.33860818 15.60959904 17.42786867 13.91015625 20.17578125 C11.75873212 24.48786309 11.94951615 28.34222259 12.078125 33.02734375 C12.10538079 34.63995389 12.13138381 36.25258561 12.15625 37.86523438 C12.19951436 40.40480342 12.25016337 42.94325264 12.32226562 45.48217773 C12.38890948 47.93490955 12.42364954 50.3864203 12.453125 52.83984375 C12.48206848 53.5972435 12.51101196 54.35464325 12.54083252 55.13499451 C12.56038396 58.98938636 12.35215488 60.62768106 9.65917969 63.47485352 C6.37043875 65.36107869 4.73148997 65.69965437 1 65 C-1.84624532 62.96352117 -3.71776494 61.3513015 -4.45343018 57.82904053 C-4.62564672 55.1325741 -4.63954699 52.4751525 -4.6015625 49.7734375 C-4.61357193 48.29648911 -4.61357193 48.29648911 -4.62582397 46.78970337 C-4.64887739 43.65104814 -4.63942855 40.51369005 -4.625 37.375 C-4.62115689 34.22941285 -4.62453957 31.08439578 -4.64559937 27.93887329 C-4.65772273 25.98348421 -4.65496364 24.02793501 -4.63589478 22.07260132 C-4.63955048 21.18803253 -4.64320618 20.30346375 -4.64697266 19.39208984 C-4.64299469 18.61441254 -4.63901672 17.83673523 -4.63491821 17.03549194 C-5.09863524 14.45006503 -5.96161757 13.60861921 -8 12 C-9.64991582 11.29289322 -11.31562256 10.62056011 -13 10 C-14 9 -14 9 -14.375 6.6875 C-14 4 -14 4 -12.0625 1.6875 C-7.94722051 -0.58010299 -4.60466554 -0.83721192 0 0 Z " fill="#5F9A46" transform="translate(547,446)"/>
<path d="M0 0 C3.49166062 2.12535864 5.71615585 4.63433493 8 8 C8.67095703 7.38511719 8.67095703 7.38511719 9.35546875 6.7578125 C9.96003906 6.21898437 10.56460937 5.68015625 11.1875 5.125 C11.77917969 4.59132813 12.37085938 4.05765625 12.98046875 3.5078125 C18.72623573 -0.78206382 25.09278116 -0.78512366 32 0 C35.31362881 1.34319179 37.4816391 3.4816391 40 6 C40.4498953 10.57393555 40.53136727 12.95852016 38.4375 17.0625 C36 19 36 19 32.4375 19 C29 18 29 18 27.5625 16.4375 C25.29002211 14.34682034 22.99979385 14.34761235 20.00390625 14.44140625 C16.78527275 15.33860818 15.60959904 17.42786867 13.91015625 20.17578125 C11.75873212 24.48786309 11.94951615 28.34222259 12.078125 33.02734375 C12.10538079 34.63995389 12.13138381 36.25258561 12.15625 37.86523438 C12.19951436 40.40480342 12.25016337 42.94325264 12.32226562 45.48217773 C12.38890948 47.93490955 12.42364954 50.3864203 12.453125 52.83984375 C12.48206848 53.5972435 12.51101196 54.35464325 12.54083252 55.13499451 C12.56038396 58.98938636 12.35215488 60.62768106 9.65917969 63.47485352 C6.37043875 65.36107869 4.73148997 65.69965437 1 65 C-1.84624532 62.96352117 -3.71776494 61.3513015 -4.45343018 57.82904053 C-4.62564672 55.1325741 -4.63954699 52.4751525 -4.6015625 49.7734375 C-4.61357193 48.29648911 -4.61357193 48.29648911 -4.62582397 46.78970337 C-4.64887739 43.65104814 -4.63942855 40.51369005 -4.625 37.375 C-4.62115689 34.22941285 -4.62453957 31.08439578 -4.64559937 27.93887329 C-4.65772273 25.98348421 -4.65496364 24.02793501 -4.63589478 22.07260132 C-4.63955048 21.18803253 -4.64320618 20.30346375 -4.64697266 19.39208984 C-4.64299469 18.61441254 -4.63901672 17.83673523 -4.63491821 17.03549194 C-5.09845787 14.45105396 -5.9495399 13.59376065 -8 12 C-8.86625 11.731875 -9.7325 11.46375 -10.625 11.1875 C-11.40875 10.795625 -12.1925 10.40375 -13 10 C-13.8125 6.875 -13.8125 6.875 -14 4 C-9.7265859 -0.41126617 -5.86947769 -1.06717776 0 0 Z " fill="#5F9A46" transform="translate(248,446)"/>
<path d="M0 0 C4.94859627 2.63925134 8.31871393 5.85067305 10.12890625 11.28125 C10.73624521 17.25341641 10.02205042 20.66009936 6.53125 25.58203125 C3.83123499 28.85363718 1.82490993 30.07606732 -2.421875 30.58984375 C-6.95646995 30.79233581 -10.14064466 30.61327231 -14.30859375 28.71875 C-18.45836481 24.7714068 -21.05130563 21.06925818 -21.30859375 15.21875 C-20.68605367 9.61588929 -19.10022577 6.15083012 -14.87109375 2.46875 C-10.29896379 -0.86509476 -5.49420949 -2.11051054 0 0 Z " fill="#FAFCFA" transform="translate(833.87109375,408.71875)"/>
<path d="M0 0 C2.97 0 5.94 0 9 0 C8.67 0.99 8.34 1.98 8 3 C6.41008697 3.69126654 4.81604093 4.37396117 3.20703125 5.01953125 C-13.08782852 12.25848665 -26.89827683 27.80907214 -34.25 43.875 C-35.30859375 45.7109375 -35.30859375 45.7109375 -37 47 C-41.73635126 47.66189559 -46.25144172 47.46264709 -51 47 C-41.38511047 25.86960324 -20.88478494 10.67115121 0 2 C0 1.34 0 0.68 0 0 Z " fill="#F9FBF8" transform="translate(440,254)"/>
<path d="M0 0 C3.3 0 6.6 0 10 0 C9.34 0.66 8.68 1.32 8 2 C8.495 2.99 8.495 2.99 9 4 C8.443125 4.32871094 7.88625 4.65742188 7.3125 4.99609375 C-7.36772604 14.14643735 -17.51602294 30.80921057 -23 47 C-27.95 47 -32.9 47 -38 47 C-30.18795883 27.77410428 -15.80832157 11.04773487 3 2 C2.01 1.34 1.02 0.68 0 0 Z " fill="#F8FAF6" transform="translate(454,254)"/>
<path d="M0 0 C6.6 0 13.2 0 20 0 C20 6.93 20 13.86 20 21 C13.4 21 6.8 21 0 21 C0 14.07 0 7.14 0 0 Z " fill="#5F9A45" transform="translate(511,230)"/>
<path d="M0 0 C1 1 1 1 1.1875 4.25 C0 8 0 8 -2.19140625 9.5390625 C-7.60097573 12.23203596 -12.35256129 14.15092366 -18.4375 14.25 C-19.38496094 14.27578125 -20.33242187 14.3015625 -21.30859375 14.328125 C-24.46270184 13.94358933 -25.79299385 13.26845412 -28 11 C-28.86184539 4.21296758 -28.86184539 4.21296758 -26.3125 0.625 C-18.15514923 -5.10719243 -8.79332558 -3.8658584 0 0 Z " fill="#FAFCFA" transform="translate(200,485)"/>
<path d="M0 0 C2.75460894 1.21997711 4.85864236 2.85864236 7 5 C7.3125 7.875 7.3125 7.875 7 11 C4.2964162 13.7035838 1.58637071 14.92060463 -2.26831055 15.11352539 C-3.13238525 15.10828857 -3.99645996 15.10305176 -4.88671875 15.09765625 C-5.82451172 15.09443359 -6.76230469 15.09121094 -7.72851562 15.08789062 C-8.70498047 15.07951172 -9.68144531 15.07113281 -10.6875 15.0625 C-12.16959961 15.05573242 -12.16959961 15.05573242 -13.68164062 15.04882812 C-16.12115474 15.03704303 -18.56054689 15.02059011 -21 15 C-21.33 14.34 -21.66 13.68 -22 13 C-20.00613621 7.01840863 -17.67557611 4.14344122 -12.14453125 0.91796875 C-8.22455193 -0.75998233 -4.17468138 -0.55881562 0 0 Z " fill="#FBFCFA" transform="translate(633,458)"/>
<path d="M0 0 C4.29 0 8.58 0 13 0 C12.67 0.66 12.34 1.32 12 2 C10.09971384 2.62637495 8.19526389 3.24241568 6.27368164 3.80004883 C-4.19002466 6.85342755 -12.38178607 11.40767184 -21 18 C-22.0209375 18.77988281 -23.041875 19.55976563 -24.09375 20.36328125 C-32.17947122 26.79409525 -39.14640172 33.48567522 -45 42 C-45.33 42 -45.66 42 -46 42 C-46.72668835 38.1390094 -46.84201527 34.85270942 -46 31 C-42.97123404 26.89392907 -39.10868725 23.96258581 -35 21 C-34.10112061 20.34354492 -34.10112061 20.34354492 -33.18408203 19.67382812 C-22.16561342 11.73476943 -10.82870324 6.44165934 2 2 C1.34 1.34 0.68 0.68 0 0 Z " fill="#F4F8F2" transform="translate(424,254)"/>
<path d="M0 0 C4.94859627 2.63925134 8.31871393 5.85067305 10.12890625 11.28125 C10.73624521 17.25341641 10.02205042 20.66009936 6.53125 25.58203125 C3.83123499 28.85363718 1.82490993 30.07606732 -2.421875 30.58984375 C-6.95646995 30.79233581 -10.14064466 30.61327231 -14.30859375 28.71875 C-18.45836481 24.7714068 -21.05130563 21.06925818 -21.30859375 15.21875 C-20.68605367 9.61588929 -19.10022577 6.15083012 -14.87109375 2.46875 C-10.29896379 -0.86509476 -5.49420949 -2.11051054 0 0 Z M-17.24609375 6.90625 C-19.32187836 11.21749496 -19.58514885 14.5789359 -18.87109375 19.28125 C-17.12689938 23.41223667 -14.76015179 26.04711028 -10.87109375 28.28125 C-6.22108486 28.97070766 -2.24703417 28.89603189 2.06640625 26.96875 C6.46735838 23.46873347 6.46735838 23.46873347 8.12890625 18.28125 C8.51228193 13.52739151 8.61803509 11.24139179 6.44140625 6.96875 C2.86271089 2.80972566 0.71313494 1.43212892 -4.80859375 0.90625 C-10.21215039 1.15047855 -13.60012589 2.87649605 -17.24609375 6.90625 Z " fill="#74A75E" transform="translate(833.87109375,408.71875)"/>
<path d="M0 0 C1.60875 -0.04125 3.2175 -0.0825 4.875 -0.125 C5.77992188 -0.14820313 6.68484375 -0.17140625 7.6171875 -0.1953125 C10 0 10 0 12 2 C12.22008247 4.71435043 12.00841851 6.96071362 11.4375 9.625 C10.77723945 12.13648666 10.77723945 12.13648666 12 15 C8.20411134 14.45773019 6.52788007 12.79872437 4 10 C4 11.98 4 13.96 4 16 C2.68 16 1.36 16 0 16 C0 10.72 0 5.44 0 0 Z " fill="#71A65B" transform="translate(822,416)"/>
<path d="M0 0 C1.74965358 -0.05429959 3.49979787 -0.09292823 5.25 -0.125 C6.22453125 -0.14820313 7.1990625 -0.17140625 8.203125 -0.1953125 C11.0196498 0.00137219 12.60949036 0.55431084 15 2 C14.33097656 2.06316406 13.66195312 2.12632812 12.97265625 2.19140625 C-0.84327299 3.95316904 -13.04321962 9.90084699 -24.55859375 17.49609375 C-27 19 -27 19 -29 19 C-29 17.35 -29 15.7 -29 14 C-19.84853228 8.31560816 -10.23095982 5.17396113 0 2 C0 1.34 0 0.68 0 0 Z " fill="#EEF4EC" transform="translate(407,254)"/>
<path d="M0 0 C2.31 0 4.62 0 7 0 C7 0.66 7 1.32 7 2 C7.66 2 8.32 2 9 2 C9.05399736 3.45792884 9.09279177 4.91642712 9.125 6.375 C9.14820313 7.18710938 9.17140625 7.99921875 9.1953125 8.8359375 C9 11 9 11 7 13 C3.375 13.125 3.375 13.125 0 13 C0 12.34 0 11.68 0 11 C-0.33 11 -0.66 11 -1 11 C-1.0270043 9.54176788 -1.04639787 8.08339325 -1.0625 6.625 C-1.07410156 5.81289062 -1.08570313 5.00078125 -1.09765625 4.1640625 C-1 2 -1 2 0 0 Z " fill="#E7F0E3" transform="translate(523,207)"/>
<path d="M0 0 C1.98 0 3.96 0 6 0 C6 0.66 6 1.32 6 2 C6.66 2 7.32 2 8 2 C8 4.97 8 7.94 8 11 C7.34 11 6.68 11 6 11 C6 11.66 6 12.32 6 13 C4.02 13 2.04 13 0 13 C0 12.34 0 11.68 0 11 C-0.66 11 -1.32 11 -2 11 C-2 8.03 -2 5.06 -2 2 C-1.34 2 -0.68 2 0 2 C0 1.34 0 0.68 0 0 Z " fill="#BFD7B5" transform="translate(512,207)"/>
<path d="M0 0 C1.98 0 3.96 0 6 0 C6 0.66 6 1.32 6 2 C6.66 2 7.32 2 8 2 C8 4.97 8 7.94 8 11 C7.34 11 6.68 11 6 11 C5.34 9.02 4.68 7.04 4 5 C3.34 5 2.68 5 2 5 C1.34 3.35 0.68 1.7 0 0 Z " fill="#96BD85" transform="translate(524,207)"/>
<path d="M0 0 C1.98 0 3.96 0 6 0 C6 0.66 6 1.32 6 2 C6.66 2 7.32 2 8 2 C8 4.97 8 7.94 8 11 C7.34 11 6.68 11 6 11 C5.34 9.02 4.68 7.04 4 5 C3.34 5 2.68 5 2 5 C1.34 3.35 0.68 1.7 0 0 Z " fill="#91BA7F" transform="translate(512,207)"/>
<path d="M0 0 C1.74965358 -0.05429959 3.49979787 -0.09292823 5.25 -0.125 C6.22453125 -0.14820313 7.1990625 -0.17140625 8.203125 -0.1953125 C11.0196498 0.00137219 12.60949036 0.55431084 15 2 C14.23816406 2.10957031 13.47632813 2.21914063 12.69140625 2.33203125 C6.16322389 3.33448622 0.20082237 4.72636513 -6 7 C-6.33 6.01 -6.66 5.02 -7 4 C-4.69 3.34 -2.38 2.68 0 2 C0 1.34 0 0.68 0 0 Z " fill="#D2E2CB" transform="translate(407,254)"/>
<path d="M0 0 C0.66 0.99 1.32 1.98 2 3 C-0.49713036 7.16188393 -2.37113983 10.25131949 -7 12 C-10.05519518 11.93827889 -12.99574054 11.54325389 -16 11 C-16 10.67 -16 10.34 -16 10 C-14.87851562 9.85304688 -14.87851562 9.85304688 -13.734375 9.703125 C-7.69482187 8.86829674 -7.69482187 8.86829674 -2.375 6.125 C-1.02097664 4.03241845 -0.35112594 2.45788156 0 0 Z " fill="#81B06D" transform="translate(841,427)"/>
<path d="M0 0 C4.29 0 8.58 0 13 0 C12 2 12 2 9.49609375 2.8515625 C8.48675781 3.10679687 7.47742188 3.36203125 6.4375 3.625 C5.42558594 3.88539063 4.41367187 4.14578125 3.37109375 4.4140625 C2.58863281 4.60742188 1.80617188 4.80078125 1 5 C0.34 4.34 -0.32 3.68 -1 3 C-0.01 2.67 0.98 2.34 2 2 C1.34 1.34 0.68 0.68 0 0 Z " fill="#C7DCBE" transform="translate(424,254)"/>
<path d="M0 0 C2.97 0 5.94 0 9 0 C8.67 0.99 8.34 1.98 8 3 C4.4375 4.1875 4.4375 4.1875 1 5 C0.67 3.35 0.34 1.7 0 0 Z " fill="#D4E4CE" transform="translate(440,254)"/>
<path d="M0 0 C0.99 0.99 1.98 1.98 3 3 C2.8125 5.625 2.8125 5.625 2 8 C1.01 8.495 1.01 8.495 0 9 C0 6.03 0 3.06 0 0 Z " fill="#83B16F" transform="translate(522,209)"/>
<path d="M0 0 C1.35432675 1.31200404 2.68733482 2.64631404 4 4 C4 4.33 4 4.66 4 5 C1.69 5 -0.62 5 -3 5 C-2.01 3.35 -1.02 1.7 0 0 Z " fill="#70A559" transform="translate(526,215)"/>
<path d="M0 0 C2.475 0.495 2.475 0.495 5 1 C4.67 1.99 4.34 2.98 4 4 C2.68 4 1.36 4 0 4 C0 2.68 0 1.36 0 0 Z " fill="#F6F9F4" transform="translate(826,419)"/>
<path d="M0 0 C1.32 0.66 2.64 1.32 4 2 C4 2.66 4 3.32 4 4 C2.02 4 0.04 4 -2 4 C-1.34 2.68 -0.68 1.36 0 0 Z " fill="#68A050" transform="translate(514,216)"/>
</svg>
